<?xml version="1.0" encoding="UTF-8" standalone="no"?><!-- Generator: Gravit.io --><svg xmlns="http://www.w3.org/2000/svg" xmlns:xlink="http://www.w3.org/1999/xlink" style="isolation:isolate" viewBox="0 0 92 92" width="92pt" height="92pt"><defs><clipPath id="_clipPath_ggvpYdKu5KwpDYBJtElT36TY9DtDSVcG"><rect width="92" height="92"/></clipPath></defs><g clip-path="url(#_clipPath_ggvpYdKu5KwpDYBJtElT36TY9DtDSVcG)"><mask id="_mask_Uc8EwttDp1f8TnaA6a2Xo6RVsKlGZJed"><path d=" M 82.168 74.412 C 73.743 85.119 60.669 92 46 92 C 20.611 92 0 71.388 0 46 C 0 20.612 20.611 -0.002 46 0" fill="white" stroke="none"/></mask><path d=" M 82.168 74.412 C 73.743 85.119 60.669 92 46 92 C 20.611 92 0 71.388 0 46 C 0 20.612 20.611 -0.002 46 0" fill="none"/><path d=" M 82.168 74.412 C 73.743 85.119 60.669 92 46 92 C 20.611 92 0 71.388 0 46 C 0 20.612 20.611 -0.002 46 0" fill="none" mask="url(#_mask_Uc8EwttDp1f8TnaA6a2Xo6RVsKlGZJed)" vector-effect="non-scaling-stroke" stroke-width="2.6" stroke="rgb(235,120,111)" stroke-linejoin="miter" stroke-linecap="square" stroke-miterlimit="3"/></g></svg>