<?xml version="1.0" encoding="UTF-8" standalone="no"?><!-- Generator: Gravit.io --><svg xmlns="http://www.w3.org/2000/svg" xmlns:xlink="http://www.w3.org/1999/xlink" style="isolation:isolate" viewBox="0 0 92 92" width="92pt" height="92pt"><defs><clipPath id="_clipPath_jTMt4zfWHhWnzPYxiJZC1sucd0WvLgz6"><rect width="92" height="92"/></clipPath></defs><g clip-path="url(#_clipPath_jTMt4zfWHhWnzPYxiJZC1sucd0WvLgz6)"><mask id="_mask_26IaPcdA8Dtdp56Uhgc0dz70BhOhW77S"><path d=" M 9.832 74.412 C 18.257 85.119 31.331 92 46 92 C 71.389 92 92 71.388 92 46 C 92 20.612 71.389 -0.002 46 0" fill="white" stroke="none"/></mask><path d=" M 9.832 74.412 C 18.257 85.119 31.331 92 46 92 C 71.389 92 92 71.388 92 46 C 92 20.612 71.389 -0.002 46 0" fill="none"/><path d=" M 9.832 74.412 C 18.257 85.119 31.331 92 46 92 C 71.389 92 92 71.388 92 46 C 92 20.612 71.389 -0.002 46 0" fill="none" mask="url(#_mask_26IaPcdA8Dtdp56Uhgc0dz70BhOhW77S)" vector-effect="non-scaling-stroke" stroke-width="2.6" stroke="rgb(235,120,111)" stroke-linejoin="miter" stroke-linecap="square" stroke-miterlimit="3"/></g></svg>