<?xml version="1.0" encoding="UTF-8" standalone="no"?>
<svg
   xmlns:dc="http://purl.org/dc/elements/1.1/"
   xmlns:cc="http://creativecommons.org/ns#"
   xmlns:rdf="http://www.w3.org/1999/02/22-rdf-syntax-ns#"
   xmlns:svg="http://www.w3.org/2000/svg"
   xmlns="http://www.w3.org/2000/svg"
   viewBox="0 0 1794.1866 2025.08"
   height="2025.08"
   width="1794.1866"
   xml:space="preserve"
   id="svg2"
   version="1.1"><metadata
     id="metadata8"><rdf:RDF><cc:Work
         rdf:about=""><dc:format>image/svg+xml</dc:format><dc:type
           rdf:resource="http://purl.org/dc/dcmitype/StillImage" /></cc:Work></rdf:RDF></metadata><defs
     id="defs6" /><g
     transform="matrix(1.3333333,0,0,-1.3333333,0,2025.08)"
     id="g10"><g
       transform="scale(0.1)"
       id="g12"><path
         id="path14"
         style="fill:#ffffff;fill-opacity:1;fill-rule:nonzero;stroke:none"
         d="M 4984.16,785.402 V 6.60156 h -189.2 V 785.402 h 189.2" /><path
         id="path16"
         style="fill:#ffffff;fill-opacity:1;fill-rule:nonzero;stroke:none"
         d="m 5361.44,785.402 h 187 L 5772.85,495 c 36.29,-48.398 72.59,-97.898 123.2,-172.699 h 2.2 c -11,74.801 -12.1,124.301 -12.1,194.699 v 268.402 h 188.1 V 0 h -158.41 l -249.69,313.5 c -37.41,48.402 -75.9,97.902 -126.51,172.703 h -3.3 c 11.01,-74.801 13.21,-124.301 13.21,-194.703 V 6.60156 H 5361.44 V 785.402" /><path
         id="path18"
         style="fill:#ffffff;fill-opacity:1;fill-rule:nonzero;stroke:none"
         d="m 6697.93,174.902 c 173.8,0 259.6,69.297 259.6,224.399 0,149.601 -84.7,217.801 -258.49,217.801 h -58.3 v -442.2 z m -246.4,610.5 h 255.2 c 284.9,0 445.51,-146.3 445.51,-387.203 0,-243.097 -168.31,-391.59744 -446.61,-391.59744 h -254.1 V 785.402" /><path
         id="path20"
         style="fill:#ffffff;fill-opacity:1;fill-rule:nonzero;stroke:none"
         d="M 7685.73,785.402 V 6.60156 H 7496.52 V 785.402 h 189.21" /><path
         id="path22"
         style="fill:#ffffff;fill-opacity:1;fill-rule:nonzero;stroke:none"
         d="M 8482.12,291.5 8431.51,440 c -14.29,46.203 -30.8,105.602 -41.79,167.203 h -4.41 c -9.9,-61.601 -26.39,-121 -41.79,-167.203 l -49.51,-148.5 z m 47.29,-143 h -281.6 L 8200.52,6.60156 H 7979.41 L 8283.02,785.402 h 216.7 L 8798.92,6.60156 H 8577.81 L 8529.41,148.5" /><path
         id="path24"
         style="fill:#ffffff;fill-opacity:1;fill-rule:nonzero;stroke:none"
         d="m 5433.79,12079.9 c 0,-290.3 -235.38,-525.8 -525.85,-525.8 -290.37,0 -525.75,235.5 -525.75,525.8 0,290.4 235.38,525.9 525.75,525.9 290.47,0 525.85,-235.5 525.85,-525.9" /><path
         id="path26"
         style="fill:#ffffff;fill-opacity:1;fill-rule:nonzero;stroke:none"
         d="m 6301.75,10887.2 c 0,-290.3 -235.38,-525.7 -525.66,-525.7 -290.37,0 -525.75,235.4 -525.75,525.7 0,290.4 235.38,525.7 525.75,525.7 290.28,0 525.66,-235.3 525.66,-525.7" /><path
         id="path28"
         style="fill:#ffffff;fill-opacity:1;fill-rule:nonzero;stroke:none"
         d="m 7896.3,10834.7 c 0,-236.8 -191.97,-428.7 -428.75,-428.7 -236.86,0 -428.83,191.9 -428.83,428.7 0,236.8 191.97,428.7 428.83,428.7 236.78,0 428.75,-191.9 428.75,-428.7" /><path
         id="path30"
         style="fill:#ffffff;fill-opacity:1;fill-rule:nonzero;stroke:none"
         d="m 7343.15,9807.61 c 0,-290.28 -235.38,-525.66 -525.66,-525.66 -290.37,0 -525.66,235.38 -525.66,525.66 0,290.29 235.29,525.69 525.66,525.69 290.28,0 525.66,-235.4 525.66,-525.69" /><path
         id="path32"
         style="fill:#ffffff;fill-opacity:1;fill-rule:nonzero;stroke:none"
         d="m 8211.19,8614.73 c 0,-290.28 -235.38,-525.66 -525.66,-525.66 -290.37,0 -525.67,235.38 -525.67,525.66 0,290.28 235.3,525.66 525.67,525.66 290.28,0 525.66,-235.38 525.66,-525.66" /><path
         id="path34"
         style="fill:#ffffff;fill-opacity:1;fill-rule:nonzero;stroke:none"
         d="m 6725.05,8726.8 c 0,-236.86 -191.97,-428.84 -428.84,-428.84 -236.86,0 -428.84,191.98 -428.84,428.84 0,236.86 191.98,428.83 428.84,428.83 236.87,0 428.84,-191.97 428.84,-428.83" /><path
         id="path36"
         style="fill:#ffffff;fill-opacity:1;fill-rule:nonzero;stroke:none"
         d="m 6504.75,7745.42 c 0,-177.32 -143.75,-321.16 -321.16,-321.16 -177.33,0 -321.08,143.84 -321.08,321.16 0,177.33 143.75,321.17 321.08,321.17 177.41,0 321.16,-143.84 321.16,-321.17" /><path
         id="path38"
         style="fill:#ffffff;fill-opacity:1;fill-rule:nonzero;stroke:none"
         d="m 8444.89,7455.33 c 0,-217.1 -176.02,-393.13 -393.13,-393.13 -217.1,0 -393.13,176.03 -393.13,393.13 0,217.11 176.03,393.13 393.13,393.13 217.11,0 393.13,-176.02 393.13,-393.13" /><path
         id="path40"
         style="fill:#ffffff;fill-opacity:1;fill-rule:nonzero;stroke:none"
         d="m 6596.48,6980.07 c 0,-139.21 -112.87,-252.08 -252.17,-252.08 -139.2,0 -252.06,112.87 -252.06,252.08 0,139.2 112.86,252.06 252.06,252.06 139.3,0 252.17,-112.86 252.17,-252.06" /><path
         id="path42"
         style="fill:#ffffff;fill-opacity:1;fill-rule:nonzero;stroke:none"
         d="m 8344.98,6492.95 c 0,-170.18 -137.91,-308.08 -308.09,-308.08 -170.17,0 -308.18,137.9 -308.18,308.08 0,170.18 138.01,308.09 308.18,308.09 170.18,0 308.09,-137.91 308.09,-308.09" /><path
         id="path44"
         style="fill:#ffffff;fill-opacity:1;fill-rule:nonzero;stroke:none"
         d="m 6932.5,6431.48 c 0,-103.97 -84.31,-188.27 -188.27,-188.27 -103.96,0 -188.26,84.3 -188.26,188.27 0,103.95 84.3,188.26 188.26,188.26 103.96,0 188.27,-84.31 188.27,-188.26" /><path
         id="path46"
         style="fill:#ffffff;fill-opacity:1;fill-rule:nonzero;stroke:none"
         d="m 7911.89,5736.15 c 0,-126.78 -102.76,-229.45 -229.45,-229.45 -126.77,0 -229.53,102.67 -229.53,229.45 0,126.77 102.76,229.44 229.53,229.44 126.69,0 229.45,-102.67 229.45,-229.44" /><path
         id="path48"
         style="fill:#ffffff;fill-opacity:1;fill-rule:nonzero;stroke:none"
         d="m 7452.63,5141.9 c 0,-85.1 -69.01,-154.1 -154.05,-154.1 -85.05,0 -153.95,69 -153.95,154.1 0,85.02 68.9,154.02 153.95,154.02 85.04,0 154.05,-69 154.05,-154.02" /><path
         id="path50"
         style="fill:#ffffff;fill-opacity:1;fill-rule:nonzero;stroke:none"
         d="m 8403.82,11920.4 c 0,-236.7 -191.89,-428.6 -428.65,-428.6 -236.77,0 -428.66,191.9 -428.66,428.6 0,236.8 191.89,428.7 428.66,428.7 236.76,0 428.65,-191.9 428.65,-428.7" /><path
         id="path52"
         style="fill:#ffffff;fill-opacity:1;fill-rule:nonzero;stroke:none"
         d="m 8408.85,12901.8 c 0,-177.4 -143.75,-321.1 -321.17,-321.1 -177.42,0 -321.17,143.7 -321.17,321.1 0,177.4 143.75,321.2 321.17,321.2 177.42,0 321.17,-143.8 321.17,-321.2" /><path
         id="path54"
         style="fill:#ffffff;fill-opacity:1;fill-rule:nonzero;stroke:none"
         d="m 8179.11,13667.1 c 0,-139.3 -112.86,-252.2 -252.17,-252.2 -139.2,0 -252.16,112.9 -252.16,252.2 0,139.3 112.96,252.1 252.16,252.1 139.31,0 252.17,-112.8 252.17,-252.1" /><path
         id="path56"
         style="fill:#ffffff;fill-opacity:1;fill-rule:nonzero;stroke:none"
         d="m 7715.34,14215.8 c 0,-104 -84.31,-188.3 -188.27,-188.3 -103.96,0 -188.16,84.3 -188.16,188.3 0,103.9 84.2,188.2 188.16,188.2 103.96,0 188.27,-84.3 188.27,-188.2" /><path
         id="path58"
         style="fill:#ffffff;fill-opacity:1;fill-rule:nonzero;stroke:none"
         d="m 4935.05,13239.4 c 0,-217.1 -176.02,-393.1 -393.13,-393.1 -217.11,0 -393.13,176 -393.13,393.1 0,217.2 176.02,393.2 393.13,393.2 217.11,0 393.13,-176 393.13,-393.2" /><path
         id="path60"
         style="fill:#ffffff;fill-opacity:1;fill-rule:nonzero;stroke:none"
         d="m 4864.88,14201.9 c 0,-170.2 -138.01,-308.2 -308.19,-308.2 -170.18,0 -308.18,138 -308.18,308.2 0,170.2 138,308.2 308.18,308.2 170.18,0 308.19,-138 308.19,-308.2" /><path
         id="path62"
         style="fill:#ffffff;fill-opacity:1;fill-rule:nonzero;stroke:none"
         d="m 5140.52,14958.7 c 0,-126.7 -102.76,-229.5 -229.44,-229.5 -126.69,0 -229.45,102.8 -229.45,229.5 0,126.6 102.76,229.4 229.45,229.4 126.68,0 229.44,-102.8 229.44,-229.4" /><path
         id="path64"
         style="fill:#ffffff;fill-opacity:1;fill-rule:nonzero;stroke:none"
         d="m 9802.01,3518.2 c -90.9,0 -162.23,-53.8 -162.23,-122.2 V 1924.9 c 0,-68.2 71.33,-122 162.23,-122 87.88,0 162.22,56 162.22,122 V 3396 c 0,66.2 -74.34,122.2 -162.22,122.2" /><path
         id="path66"
         style="fill:#ffffff;fill-opacity:1;fill-rule:nonzero;stroke:none"
         d="m 8199.73,3509.2 c -19.76,6.3 -37.87,9 -61.36,9 -64.39,0 -116.69,-21.1 -146.05,-75.1 L 7236.81,2240.2 6458.33,3445.6 c -35.48,50.2 -94.38,70.7 -157.38,70.7 -18.2,0 -33.84,-2.5 -49.56,-7.1 -62.19,-18.9 -103.79,-64.4 -103.79,-112.6 0,-12.6 2.19,-30.4 13.25,-46.7 l 926.99,-1471 c 29.53,-47 74.25,-75.9 149.24,-75.9 74.98,0 119.06,28.9 149.24,78 l 903.75,1469.2 c 8.87,14.6 13.45,31.5 13.45,48.2 0,49.7 -39.69,92.2 -103.79,110.8" /><path
         id="path68"
         style="fill:#ffffff;fill-opacity:1;fill-rule:nonzero;stroke:none"
         d="M 4827.3,2044.6 H 3776.22 c -99.76,0 -184.44,61.4 -184.44,134.2 v 376.5 h 1200.87 c 87.69,0 159.29,54.9 159.29,121.9 0,66.3 -71.6,119.8 -159.29,119.8 H 3591.78 v 345.4 c 0,71.4 84.68,131.7 184.44,131.7 H 4827.3 c 84.95,0 159.3,57 159.3,122.2 0,67 -71.42,121.9 -159.3,121.9 H 3776.22 c -280.45,0 -508.61,-168.6 -508.61,-375.8 v -963.6 c 0,-207.2 228.16,-375.9 508.61,-375.9 H 4827.3 c 87.88,0 161.95,56 161.95,122 0,63.8 -75.71,119.7 -161.95,119.7" /><path
         id="path70"
         style="fill:#ffffff;fill-opacity:1;fill-rule:nonzero;stroke:none"
         d="M 1585.67,3518.2 H 513.742 C 230.352,3518.2 0,3349.7 0,3142.6 v -1218 c 0,-68.1 71.4219,-121.7 162.773,-121.7 88.153,0 162.774,55.8 162.774,121.7 v 1218 c 0,71.3 86.234,131.7 188.195,131.7 H 1585.67 c 103.61,0 191.21,-60.4 191.21,-131.7 v -344.8 c 0,-72.5 -87.6,-133.8 -191.21,-133.8 h -327.75 c -29.17,0 -43.25,-13.6 -49.74,-24.9 -33.01,-57.3 44.9,-195.2 53.49,-210.4 l 299.13,-551.9 c 24.05,-44.1 84.4,-73.9 149.51,-73.9 24.87,0 42.43,2.8 58.7,9 61.37,18.6 104.35,66 104.35,114.9 0,16.8 -4.58,31.4 -13.26,44.1 -78.37,136.8 -187.65,331.5 -251.76,451.8 275.62,9.3 488.42,171.5 488.42,375.1 v 344.8 c 0,207.1 -229.35,375.6 -511.09,375.6" /><path
         id="path72"
         style="fill:#ffffff;fill-opacity:1;fill-rule:nonzero;stroke:none"
         d="m 13352.6,3509.2 c -19.7,6.3 -37.8,9 -61.3,9 -64.4,0 -116.7,-21.1 -146.1,-75.1 l -755.5,-1202.9 -778.5,1205.4 c -35.4,50.2 -94.3,70.7 -157.3,70.7 -18.2,0 -33.9,-2.5 -49.6,-7.1 -62.2,-18.9 -103.8,-64.4 -103.8,-112.6 0,-12.6 2.2,-30.4 13.3,-46.7 l 926.9,-1471 c 29.5,-47 74.3,-75.9 149.3,-75.9 75,0 119,28.9 149.2,78 l 903.8,1469.2 c 8.8,14.6 13.4,31.5 13.4,48.2 0,49.7 -39.7,92.2 -103.8,110.8" /></g></g></svg>