<svg width="21" height="20" viewBox="0 0 21 20" fill="none" xmlns="http://www.w3.org/2000/svg">
<g clip-path="url(#clip0_2497_2177)">
<path fill-rule="evenodd" clip-rule="evenodd" d="M16.8514 2.67841C16.9417 2.58809 17.0859 2.58587 17.178 2.67801L17.621 3.12098C17.7111 3.21108 17.7098 3.3584 17.6206 3.44763L11.9299 9.13831C11.8099 9.25828 11.8507 9.35557 12.0199 9.35557H20.0677C20.1954 9.35557 20.299 9.45597 20.299 9.58628V10.2127C20.299 10.3401 20.1939 10.4434 20.0677 10.4434H12.0199C11.8502 10.4434 11.8103 10.541 11.9299 10.6607L17.6206 16.3514C17.7109 16.4417 17.7131 16.5859 17.621 16.678L17.178 17.121C17.0879 17.2111 16.9406 17.2098 16.8514 17.1206L11.1607 11.4299C11.0407 11.3099 10.9434 11.3507 10.9434 11.5199V19.5677C10.9434 19.6954 10.843 19.799 10.7127 19.799H10.0863C9.95886 19.799 9.85557 19.6939 9.85557 19.5677V11.5199C9.85557 11.3502 9.75794 11.3103 9.63831 11.4299L3.94763 17.1206C3.85732 17.2109 3.71311 17.2131 3.62098 17.121L3.17801 16.678C3.08792 16.5879 3.08917 16.4406 3.17841 16.3514L8.86908 10.6607C8.98905 10.5407 8.94828 10.4434 8.77908 10.4434H0.731263C0.60354 10.4434 0.5 10.343 0.5 10.2127V9.58628C0.5 9.45886 0.605068 9.35557 0.731263 9.35557H8.77908C8.94877 9.35557 8.98871 9.25794 8.86908 9.13831L3.17841 3.44763C3.08809 3.35732 3.08587 3.21311 3.17801 3.12098L3.62098 2.67801C3.71108 2.58792 3.8584 2.58917 3.94763 2.67841L9.63831 8.36908C9.75828 8.48905 9.85557 8.44828 9.85557 8.27908V0.231263C9.85557 0.10354 9.95597 0 10.0863 0H10.7127C10.8401 0 10.9434 0.105068 10.9434 0.231263V8.27908C10.9434 8.44877 11.041 8.48871 11.1607 8.36908L16.8514 2.67841Z" fill="#ED836E"/>
</g>
<defs>
<clipPath id="clip0_2497_2177">
<rect width="20" height="20" fill="white" transform="translate(0.5)"/>
</clipPath>
</defs>
</svg>
