<svg xmlns="http://www.w3.org/2000/svg" style="isolation:isolate" viewBox="0 0 92 92" width="92pt" height="92pt"><defs><clipPath id="a"><path d="M0 0h92v92H0z"/></clipPath></defs><g clip-path="url(#a)"><mask id="b"><path d="M82.168 74.412C73.743 85.119 60.669 92 46 92 20.611 92 0 71.388 0 46S20.611-.002 46 0" fill="#fff"/></mask><path d="M82.168 74.412C73.743 85.119 60.669 92 46 92 20.611 92 0 71.388 0 46S20.611-.002 46 0" fill="none"/><path d="M82.168 74.412C73.743 85.119 60.669 92 46 92 20.611 92 0 71.388 0 46S20.611-.002 46 0" fill="none" mask="url(#b)" vector-effect="non-scaling-stroke" stroke-width="2.6" stroke="#EB786F" stroke-linecap="square" stroke-miterlimit="3"/></g></svg>