<svg xmlns="http://www.w3.org/2000/svg" style="isolation:isolate" viewBox="0 0 92 92" width="92pt" height="92pt"><defs><clipPath id="a"><path d="M0 0h92v92H0z"/></clipPath></defs><g clip-path="url(#a)"><mask id="b"><path d="M9.832 74.412C18.257 85.119 31.331 92 46 92c25.389 0 46-20.612 46-46S71.389-.002 46 0" fill="#fff"/></mask><path d="M9.832 74.412C18.257 85.119 31.331 92 46 92c25.389 0 46-20.612 46-46S71.389-.002 46 0" fill="none"/><path d="M9.832 74.412C18.257 85.119 31.331 92 46 92c25.389 0 46-20.612 46-46S71.389-.002 46 0" fill="none" mask="url(#b)" vector-effect="non-scaling-stroke" stroke-width="2.6" stroke="#EB786F" stroke-linecap="square" stroke-miterlimit="3"/></g></svg>