<svg width="247" height="45" viewBox="0 0 247 45" fill="none" xmlns="http://www.w3.org/2000/svg">
<path d="M0.561331 29.5166C0.49896 29.5166 0.389813 29.4854 0.233888 29.4231C0.0779626 29.3919 0 29.3295 0 29.236C0 29.2048 0.0155925 29.1736 0.0467775 29.1424C0.0779626 29.1112 0.0935551 29.0956 0.0935551 29.0956C0.31185 29.0333 0.405405 29.0021 0.37422 29.0021C0.37422 29.0333 0.483368 29.0177 0.701663 28.9553C1.23181 28.7682 1.68399 28.5031 2.05821 28.1601C2.46362 27.7859 2.80665 27.3493 3.08732 26.8503C4.55301 24.4179 5.95634 21.9543 7.2973 19.4595C8.63825 16.9335 9.97921 14.4231 11.3202 11.9283C11.6944 11.2734 12.053 10.6029 12.396 9.91684C12.7391 9.23077 13.0821 8.5447 13.4252 7.85863C13.5811 7.48441 13.737 7.11019 13.8929 6.73597C14.08 6.36175 14.2827 6.00312 14.501 5.66008C14.7505 5.22349 15.1403 4.84927 15.6705 4.53742C16.2318 4.19439 16.762 3.94491 17.2609 3.78898H16.1383C15.5146 3.78898 14.657 3.83576 13.5655 3.92932C12.5052 3.99169 11.3825 4.11642 10.1975 4.30353C9.01247 4.49065 7.95218 4.77131 7.01663 5.14553C6.11227 5.51975 5.48857 6.01871 5.14553 6.64241C4.83368 7.20374 4.67775 7.74948 4.67775 8.27963C4.67775 8.90333 4.81809 9.32432 5.09875 9.54262C5.37942 9.76092 5.51975 9.90125 5.51975 9.96362C5.51975 10.026 5.47297 10.0884 5.37942 10.1507C5.28586 10.2131 5.2079 10.2443 5.14553 10.2443C4.95842 10.2443 4.72453 10.0572 4.44387 9.68295C4.1632 9.30873 3.89813 8.90333 3.64865 8.46674C3.43035 7.99896 3.29002 7.68711 3.22765 7.53119C3.1341 7.18815 3.08732 6.84512 3.08732 6.50208C3.08732 5.66008 3.36798 5.02079 3.92931 4.5842C4.52183 4.11642 5.23909 3.78898 6.08108 3.60187C6.92308 3.41476 7.76507 3.30561 8.60707 3.27443C9.48025 3.21206 10.1975 3.18087 10.7588 3.18087C12.3181 3.18087 13.8773 3.14969 15.4366 3.08732C16.9958 2.99376 18.5395 2.94699 20.0676 2.94699C21.5333 2.94699 22.9678 3.05613 24.3711 3.27443C25.8056 3.46154 27.0998 3.85135 28.2536 4.44387C29.4075 5.03638 30.3274 5.87838 31.0135 6.96985C31.7308 8.06133 32.0894 9.49584 32.0894 11.2734C32.0894 12.895 31.7775 14.5634 31.1538 16.2786C30.5613 17.9626 29.8129 19.4751 28.9085 20.816C25.104 26.5229 19.7713 29.3763 12.9106 29.3763C11.8503 29.3763 10.7588 29.2672 9.63618 29.0489C8.5447 28.8306 7.51559 28.4719 6.54886 27.973C6.33056 27.8482 6.09667 27.7547 5.84719 27.6923C5.6289 27.5988 5.39501 27.552 5.14553 27.552C4.61538 27.552 4.08524 27.7235 3.55509 28.0665C3.02495 28.3784 2.5104 28.6902 2.01143 29.0021C1.51247 29.3451 1.02911 29.5166 0.561331 29.5166ZM12.3493 28.7214C14.6882 28.7214 16.8711 28.2692 18.8981 27.3649C20.9252 26.4605 22.7027 25.1975 24.2308 23.5759C25.7588 21.9231 26.9595 20.0364 27.8326 17.9158C28.238 16.9179 28.5655 15.8732 28.815 14.7817C29.0956 13.6902 29.236 12.6143 29.236 11.5541C29.236 9.12162 28.4875 7.25052 26.9906 5.94075C25.5249 4.59979 23.5915 3.92932 21.1902 3.92932C20.5977 3.92932 19.974 3.99169 19.3191 4.11642C18.6954 4.24116 18.1809 4.53742 17.7755 5.0052C17.3701 5.50416 16.9802 6.0499 16.606 6.64241C16.263 7.23493 15.92 7.81185 15.5769 8.37318C14.8597 9.62058 14.1736 10.9148 13.5187 12.2557C12.895 13.5655 12.2557 14.8597 11.6008 16.1383C10.5717 18.1029 9.55821 20.0832 8.56029 22.079C8.342 22.5156 8.10811 22.9678 7.85863 23.4356C7.64033 23.8721 7.42204 24.3087 7.20374 24.7453C7.14137 24.9012 7.079 25.0728 7.01663 25.2599C6.95426 25.4158 6.92308 25.6029 6.92308 25.8212C6.92308 26.2266 7.04782 26.5696 7.2973 26.8503C7.54678 27.131 7.81185 27.396 8.09252 27.6455C8.68503 28.0821 9.3711 28.3784 10.1507 28.5343C10.9304 28.659 11.6632 28.7214 12.3493 28.7214Z" fill="#DB7A69"/>
<path d="M32.1819 29.2827C32.0571 29.2827 32.0571 29.158 32.1819 28.9085C32.3378 28.6279 32.4781 28.316 32.6029 27.973C32.7588 27.6299 32.9147 27.2557 33.0706 26.8503C33.3825 26.1019 33.7255 25.2599 34.0997 24.3243C34.474 23.3888 34.8326 22.4844 35.1756 21.6112C35.5187 20.7069 35.8149 19.9428 36.0644 19.3191C36.3451 18.6642 36.5322 18.2432 36.6257 18.0561C36.1891 18.5239 35.659 19.1164 35.0353 19.8337C34.4428 20.5198 33.8814 21.1902 33.3513 21.8451C32.8211 22.5 32.4157 23.0146 32.1351 23.3888C32.0415 23.5135 31.9636 23.5759 31.9012 23.5759C31.8388 23.5759 31.8076 23.4979 31.8076 23.342C31.8076 23.0925 31.8856 22.8586 32.0415 22.6403C32.634 21.8919 33.2889 21.0499 34.0062 20.1143C34.7546 19.1788 35.4251 18.3212 36.0176 17.5416C36.6101 16.7308 36.9843 16.2006 37.1403 15.9511C37.4833 15.8888 37.9823 15.7952 38.6372 15.6705C39.3232 15.5457 39.791 15.3742 40.0405 15.1559C40.134 15.0624 40.2276 15.0156 40.3212 15.0156C40.3835 15.0156 40.4147 15.078 40.4147 15.2027C40.4459 15.2963 40.4147 15.4054 40.3212 15.5301C40.134 15.7173 39.8534 16.1227 39.4792 16.7464C39.1361 17.3701 38.7463 18.0873 38.3097 18.8981C37.8731 19.7089 37.4521 20.4886 37.0467 21.237C37.3586 20.7692 37.764 20.2235 38.2629 19.5998C38.7931 18.9449 39.37 18.3212 39.9937 17.7287C40.6174 17.105 41.2411 16.5904 41.8648 16.185C42.5197 15.7796 43.1278 15.5769 43.6891 15.5769C44.0945 15.5769 44.4376 15.6705 44.7182 15.8576C44.9989 16.0135 45.2172 16.3098 45.3731 16.7464C45.4667 16.9647 45.5135 17.2141 45.5135 17.4948C45.5135 18.0249 45.3731 18.5395 45.0925 19.0385C44.843 19.5062 44.6559 19.8649 44.5311 20.1143C44.4999 20.2079 44.3908 20.3015 44.2037 20.395C44.0166 20.4574 43.9386 20.4262 43.9698 20.3015C44.001 20.1455 44.0166 19.9896 44.0166 19.8337C44.0478 19.6778 44.0634 19.5062 44.0634 19.3191C44.0634 18.789 43.9542 18.3056 43.7359 17.869C43.5488 17.4324 43.1902 17.2141 42.66 17.2141C42.1611 17.2141 41.553 17.526 40.8357 18.1497C40.1184 18.7734 39.4012 19.4906 38.6839 20.3015C37.7796 21.3617 37.0623 22.3753 36.5322 23.342C36.002 24.2775 35.5654 25.1975 35.2224 26.1019C35.0353 26.6008 34.8482 27.0998 34.6611 27.5988C34.474 28.0665 34.3336 28.4407 34.2401 28.7214C33.8347 28.7526 33.4293 28.8462 33.0239 29.0021C32.6184 29.1892 32.3378 29.2827 32.1819 29.2827Z" fill="#DB7A69"/>
<path d="M47.2658 28.9085C46.9539 28.9085 46.6265 28.7994 46.2835 28.5811C45.9716 28.3316 45.7221 28.0977 45.535 27.8794C45.5038 27.817 45.6286 27.6923 45.9092 27.5052C46.1899 27.2869 46.4862 27.0842 46.798 26.8971C47.141 26.71 47.3282 26.632 47.3593 26.6632C47.6088 26.7879 47.8583 26.9283 48.1078 27.0842C48.3573 27.2089 48.6223 27.2557 48.903 27.2245H49.0901C49.246 27.2245 49.324 27.2713 49.324 27.3649C49.324 27.4584 49.2149 27.6143 48.9966 27.8326C48.7159 28.0509 48.4196 28.2848 48.1078 28.5343C47.8271 28.7838 47.5465 28.9085 47.2658 28.9085Z" fill="#DB7A69"/>
<path d="M82.8335 29.7037C82.0539 29.7037 81.2587 29.4543 80.4479 28.9553C79.6683 28.4875 78.873 27.7235 78.0622 26.6632C77.0643 25.2911 76.2223 23.9813 75.5362 22.7339C74.8502 21.4865 74.2888 20.395 73.8522 19.4595C73.4468 18.5239 73.135 17.8534 72.9167 17.448C72.9167 17.448 72.9947 17.3545 73.1506 17.1674C73.3065 16.9491 73.4936 16.7464 73.7119 16.5593C73.9614 16.341 74.1641 16.2318 74.32 16.2318C75.7857 16.2318 77.0955 16.2162 78.2493 16.185C79.4344 16.1227 80.4791 15.9356 81.3834 15.6237C82.319 15.2807 83.1454 14.7037 83.8626 13.8929C84.5799 13.0821 85.188 11.9283 85.687 10.4314C85.8429 10.0572 85.9364 9.68295 85.9676 9.30873C86.03 8.90333 86.0612 8.51351 86.0612 8.13929C86.0612 7.079 85.7961 6.14345 85.266 5.33264C84.7358 4.52183 83.9718 4.05405 82.9739 3.92932C82.8491 3.89813 82.7088 3.88254 82.5529 3.88254C82.3969 3.88254 82.241 3.88254 82.0851 3.88254C81.4926 3.88254 80.8377 3.9605 80.1204 4.11642C79.4344 4.27235 78.9198 4.56861 78.5768 5.0052C77.7972 6.0343 77.0487 7.20374 76.3315 8.51352C75.6142 9.7921 74.9281 11.1019 74.2732 12.4428C73.6184 13.7526 72.9947 14.9844 72.4021 16.1383C72.2462 16.4501 71.95 17.0114 71.5134 17.8222C71.0768 18.6019 70.5934 19.5062 70.0633 20.5353C69.5331 21.5333 69.0342 22.5312 68.5664 23.5291C68.0986 24.527 67.7244 25.4158 67.4437 26.1954C67.1942 26.9751 67.1319 27.5052 67.2566 27.7859C67.2878 27.817 67.3034 27.8638 67.3034 27.9262C67.3034 28.0197 67.2566 28.0665 67.1631 28.0665C66.9136 28.0665 66.6641 28.0042 66.4146 27.8794C66.1651 27.7547 65.8689 27.6923 65.5258 27.6923C65.214 27.6923 64.9021 27.7703 64.5903 27.9262C64.2784 28.0509 63.873 28.2848 63.3741 28.6279C62.8751 28.9709 62.3138 29.2516 61.6901 29.4699C61.6277 29.501 61.5342 29.5166 61.4094 29.5166C61.1911 29.5166 61.0196 29.4543 60.8949 29.3295C60.7701 29.236 60.7701 29.158 60.8949 29.0956C61.5809 28.9709 62.1734 28.7214 62.6724 28.3472C63.1714 27.9418 63.5768 27.4428 63.8886 26.8503C64.5435 25.7588 65.1828 24.6674 65.8065 23.5759C66.4614 22.4532 67.0851 21.3306 67.6776 20.2079C68.3949 18.8358 69.1277 17.4636 69.8762 16.0915C70.6246 14.6881 71.373 13.3004 72.1215 11.9283C72.8387 10.6497 73.478 9.41788 74.0394 8.23285C74.6007 7.04782 75.0217 6.19023 75.3024 5.66008C75.5206 5.25468 75.8949 4.89605 76.425 4.5842C76.9863 4.24117 77.5321 3.97609 78.0622 3.78898C77.8751 3.78898 77.688 3.78898 77.5009 3.78898C77.3138 3.7578 77.1111 3.74221 76.8928 3.74221C75.926 3.74221 74.8658 3.80458 73.7119 3.92932C72.5893 4.02287 71.4822 4.1788 70.3907 4.39709C69.3304 4.61539 68.3949 4.91164 67.5841 5.28586C66.7732 5.66008 66.2275 6.11227 65.9468 6.64241C65.8221 6.92308 65.713 7.20374 65.6194 7.48441C65.5258 7.76507 65.4791 8.04574 65.4791 8.3264C65.4791 9.04366 65.7285 9.55821 66.2275 9.87006C66.2587 9.87006 66.2743 9.90125 66.2743 9.96362C66.2743 10.026 66.2119 10.0884 66.0872 10.1507C65.9936 10.2131 65.9157 10.2287 65.8533 10.1975C65.5414 10.0416 65.1828 9.66736 64.7774 9.07485C64.4032 8.45114 64.1537 7.93659 64.029 7.53119C63.9354 7.15696 63.8886 6.81393 63.8886 6.50208C63.8886 5.69127 64.1537 5.06757 64.6838 4.63098C65.214 4.1632 65.8845 3.83576 66.6953 3.64865C67.5061 3.43035 68.3325 3.30561 69.1745 3.27443C70.0477 3.21206 70.8117 3.18087 71.4666 3.18087C72.4645 3.18087 73.6495 3.18087 75.0217 3.18087C76.3938 3.14969 77.6568 3.1341 78.8107 3.1341C79.0913 3.1341 79.4032 3.1341 79.7462 3.1341C80.0893 3.10291 80.4479 3.08732 80.8221 3.08732C81.6641 3.08732 82.5373 3.1341 83.4416 3.22765C84.346 3.32121 85.1724 3.52391 85.9208 3.83576C86.6693 4.14761 87.2462 4.63098 87.6516 5.28586C88.1818 6.15904 88.4468 7.15697 88.4468 8.27963C88.4468 9.9948 87.9947 11.4293 87.0903 12.5832C86.7784 12.9886 86.4354 13.3784 86.0612 13.7526C85.687 14.1268 85.2504 14.4854 84.7514 14.8285C83.9406 15.3898 82.9739 15.8732 81.8512 16.2786C80.7285 16.6528 79.5591 16.9335 78.3429 17.1206C77.1579 17.3077 76.0664 17.4324 75.0685 17.4948C75.4739 18.368 76.082 19.5374 76.8928 21.0031C77.7348 22.4688 78.7483 23.9345 79.9333 25.4002C80.557 26.1798 81.1963 26.7256 81.8512 27.0374C82.5061 27.3493 83.1454 27.5052 83.7691 27.5052C84.767 27.5052 85.7026 27.2089 86.5757 26.6164C87.4801 26.0239 88.2909 25.3378 89.0082 24.5582C89.7566 23.7474 90.3491 23.0457 90.7857 22.4532C90.8793 22.2973 90.9572 22.2193 91.0196 22.2193C91.1132 22.2193 91.1599 22.3129 91.1599 22.5C91.1599 22.7495 91.0664 22.999 90.8793 23.2484C89.4448 25.2131 88.0726 26.7879 86.7629 27.973C85.4531 29.1268 84.1433 29.7037 82.8335 29.7037Z" fill="#DB7A69"/>
<path d="M94.0397 28.7682C93.7278 28.7682 93.4628 28.7058 93.2445 28.5811C93.0262 28.4563 92.917 28.2225 92.917 27.8794C92.917 27.4428 93.0262 26.9283 93.2445 26.3358C93.4939 25.7432 93.759 25.1507 94.0397 24.5582C94.3203 23.9657 94.5542 23.4823 94.7413 23.1081C95.1156 22.3909 95.4742 21.6736 95.8172 20.9563C96.1603 20.2391 96.4565 19.631 96.706 19.132C96.9555 18.6642 97.0802 18.3524 97.0802 18.1965C97.0802 17.947 96.8931 17.947 96.5189 18.1965C96.1759 18.4459 95.8484 18.6954 95.5366 18.9449C94.8505 19.5998 94.1332 20.3794 93.3848 21.2838C92.6364 22.157 92.0594 22.8586 91.654 23.3888C91.5605 23.5135 91.4825 23.5759 91.4201 23.5759C91.3578 23.5759 91.3266 23.4979 91.3266 23.342C91.3266 23.0925 91.4045 22.8586 91.5605 22.6403C91.9971 22.0166 92.5116 21.3306 93.1041 20.5821C93.6966 19.8337 94.3048 19.1164 94.9285 18.4304C95.521 17.8067 96.1291 17.1985 96.7528 16.606C97.3765 16.0135 98.1717 15.7173 99.1384 15.7173C99.7933 15.7173 100.121 15.9667 100.121 16.4657C100.121 16.9023 99.9336 17.4012 99.5594 17.9626C99.3411 18.3056 98.9981 18.8825 98.5303 19.6933C98.0625 20.5042 97.5792 21.3929 97.0802 22.3597C96.6124 23.2952 96.207 24.1684 95.864 24.9792C95.521 25.79 95.3494 26.3825 95.3494 26.7568C95.3494 27.1933 95.5677 27.4116 96.0043 27.4116C96.3474 27.4116 96.7684 27.2401 97.2673 26.8971C97.7663 26.5229 98.2808 26.0863 98.811 25.5873C99.7777 24.6518 100.651 23.6383 101.431 22.5468C102.241 21.4241 102.927 20.3482 103.489 19.3191C104.081 18.29 104.549 17.448 104.892 16.7931C104.954 16.6684 105.017 16.5281 105.079 16.3721C105.173 16.185 105.313 16.0759 105.5 16.0447C105.687 16.0135 106.093 15.9979 106.716 15.9979C107.34 15.9979 107.917 15.8732 108.447 15.6237H108.541C108.634 15.6237 108.681 15.6705 108.681 15.764C108.681 16.0135 108.478 16.2006 108.073 16.3254C107.699 16.4501 107.262 16.8243 106.763 17.448C106.295 18.0717 105.828 18.8358 105.36 19.7401C104.892 20.6133 104.471 21.5177 104.097 22.4532C103.723 23.3888 103.442 24.2464 103.255 25.026C103.068 25.8056 103.021 26.3825 103.115 26.7568C103.239 27.1933 103.458 27.4116 103.769 27.4116C104.175 27.4116 104.736 27.1622 105.453 26.6632C106.202 26.1642 106.966 25.5717 107.745 24.8857C108.525 24.1684 109.164 23.5135 109.663 22.921C109.882 22.6715 110.084 22.422 110.271 22.1726C110.459 21.9231 110.583 21.7672 110.646 21.7048C110.677 21.736 110.708 21.7983 110.739 21.8919C110.77 21.9543 110.786 22.0166 110.786 22.079C110.755 22.2973 110.677 22.5156 110.552 22.7339C110.427 22.921 110.287 23.0925 110.131 23.2484C109.539 24.0281 108.821 24.8545 107.979 25.7277C107.169 26.5696 106.28 27.2869 105.313 27.8794C104.378 28.4719 103.411 28.7682 102.413 28.7682C102.101 28.7682 101.742 28.6902 101.337 28.5343C100.963 28.3784 100.776 28.0353 100.776 27.5052C100.776 27.0998 100.885 26.5541 101.103 25.868C101.321 25.1507 101.555 24.4491 101.805 23.763C102.085 23.0457 102.319 22.5156 102.506 22.1726C102.101 22.7651 101.602 23.4356 101.01 24.184C100.448 24.9012 99.8713 25.5405 99.2788 26.1019C98.4991 26.8503 97.6571 27.4896 96.7528 28.0198C95.8796 28.5187 94.9752 28.7682 94.0397 28.7682Z" fill="#DB7A69"/>
<path d="M112.684 29.0489C112.279 29.0489 111.795 28.9709 111.234 28.815C110.673 28.6902 110.392 28.3472 110.392 27.7859C110.392 27.5676 110.439 27.3181 110.532 27.0374C110.626 26.7568 110.72 26.5073 110.813 26.289C111.125 25.4782 111.452 24.6518 111.795 23.8098C112.138 22.9678 112.497 22.1102 112.871 21.237C112.466 21.7048 112.076 22.1414 111.702 22.5468C111.359 22.921 111.109 23.2017 110.953 23.3888C110.86 23.5135 110.782 23.5759 110.72 23.5759C110.657 23.5759 110.626 23.4979 110.626 23.342C110.626 23.0925 110.704 22.8586 110.86 22.6403C111.296 22.079 111.795 21.4865 112.357 20.8628C112.918 20.2391 113.464 19.5842 113.994 18.8981C115.304 16.1538 116.769 13.5031 118.391 10.9459C120.013 8.35759 121.837 6.06549 123.864 4.06965C124.488 3.47713 125.189 2.86902 125.969 2.24532C126.749 1.62162 127.575 1.09148 128.448 0.654886C129.353 0.218295 130.241 0 131.115 0C131.582 0 132.003 0.12474 132.378 0.374221C132.783 0.623702 133.001 1.01351 133.032 1.54366V2.90021C133.032 3.02495 132.939 3.08732 132.752 3.08732C132.658 3.08732 132.611 3.05613 132.611 2.99376C132.611 2.4948 132.393 2.16736 131.957 2.01144C131.52 1.82432 131.083 1.73077 130.647 1.73077C128.932 1.73077 127.388 2.18295 126.016 3.08732C124.644 3.9605 123.427 5.11435 122.367 6.54886C121.307 7.95218 120.356 9.51144 119.514 11.2266C118.672 12.9106 117.908 14.579 117.222 16.2318C116.567 17.8534 115.943 19.3035 115.351 20.5821C115.351 20.5821 115.351 20.6133 115.351 20.6757C115.351 20.738 115.366 20.7692 115.397 20.7692C115.428 20.7692 115.678 20.5353 116.146 20.0676C116.645 19.5686 117.253 18.9917 117.97 18.3368C118.718 17.6819 119.498 17.1206 120.309 16.6528C121.12 16.1538 121.868 15.9044 122.554 15.9044C122.897 15.9044 123.116 16.0291 123.209 16.2786C123.303 16.4969 123.349 16.7464 123.349 17.027V17.448C123.194 18.6019 122.788 19.8493 122.133 21.1902C121.51 22.5312 120.699 23.8098 119.701 25.026C118.734 26.211 117.643 27.1778 116.426 27.9262C115.241 28.6746 113.994 29.0489 112.684 29.0489ZM113.433 28.2536C113.932 28.2536 114.462 28.0665 115.023 27.6923C115.616 27.2869 116.068 26.9283 116.38 26.6164C116.754 26.2734 117.206 25.7432 117.736 25.026C118.266 24.2775 118.781 23.4667 119.28 22.5936C119.779 21.7204 120.2 20.8784 120.543 20.0676C120.886 19.2568 121.057 18.6019 121.057 18.1029C121.057 17.947 121.026 17.8067 120.964 17.6819C120.901 17.5572 120.792 17.4948 120.636 17.4948C120.356 17.4948 119.981 17.6663 119.514 18.0094C119.077 18.3524 118.594 18.7734 118.064 19.2724C117.565 19.7401 117.097 20.2079 116.66 20.6757C116.255 21.1123 115.959 21.4397 115.771 21.658C115.428 22.0322 114.992 22.578 114.462 23.2952C113.932 24.0125 113.448 24.7453 113.012 25.4938C112.606 26.211 112.404 26.8191 112.404 27.3181C112.404 27.9418 112.747 28.2536 113.433 28.2536Z" fill="#DB7A69"/>
<path d="M119.399 45C118.214 45 117.076 44.7193 115.985 44.158C114.862 43.6279 114.035 42.8015 113.505 41.6788C113.318 41.2734 113.193 40.8368 113.131 40.369C113.069 39.9324 113.038 39.4958 113.038 39.0593V38.5447C113.038 38.2952 113.069 38.0613 113.131 37.843C113.193 37.6559 113.349 37.5624 113.599 37.5624C113.661 37.5624 113.692 37.5936 113.692 37.6559C113.692 37.843 113.677 38.0301 113.646 38.2173C113.614 38.4044 113.599 38.6071 113.599 38.8254C113.599 40.2599 114.067 41.3513 115.002 42.0998C115.907 42.8482 117.045 43.2225 118.417 43.2225C118.978 43.2225 119.555 43.1601 120.148 43.0353C120.74 42.9106 121.302 42.7391 121.832 42.5208C123.796 41.6788 125.496 40.4782 126.93 38.9189C128.396 37.3909 129.675 35.6601 130.766 33.7266C131.858 31.7931 132.84 29.8285 133.713 27.8326C134.212 26.6476 134.649 25.4938 135.023 24.3711C135.428 23.2484 135.787 22.2349 136.099 21.3306C135.787 21.7672 135.382 22.2973 134.883 22.921C134.384 23.5447 133.885 24.1528 133.386 24.7453C132.887 25.3067 132.45 25.7588 132.076 26.1019C131.296 26.8503 130.454 27.4896 129.55 28.0198C128.677 28.5187 127.772 28.7682 126.837 28.7682C126.525 28.7682 126.26 28.7058 126.042 28.5811C125.823 28.4563 125.714 28.2225 125.714 27.8794C125.714 27.4428 125.823 26.9283 126.042 26.3358C126.291 25.7432 126.556 25.1507 126.837 24.5582C127.118 23.9657 127.352 23.4823 127.539 23.1081C127.913 22.3909 128.271 21.6736 128.614 20.9563C128.958 20.2391 129.254 19.631 129.503 19.132C129.753 18.6642 129.877 18.3524 129.877 18.1965C129.877 17.947 129.69 17.947 129.316 18.1965C128.973 18.4459 128.646 18.6954 128.334 18.9449C127.648 19.5998 126.931 20.3794 126.182 21.2838C125.434 22.157 124.857 22.8586 124.451 23.3888C124.358 23.5135 124.28 23.5759 124.217 23.5759C124.155 23.5759 124.124 23.4979 124.124 23.342C124.124 23.0925 124.202 22.8586 124.358 22.6403C124.794 22.0166 125.309 21.3306 125.901 20.5821C126.494 19.8337 127.102 19.1164 127.726 18.4304C128.318 17.8067 128.926 17.1985 129.55 16.606C130.174 16.0135 130.969 15.7173 131.936 15.7173C132.591 15.7173 132.918 15.9667 132.918 16.4657C132.918 16.9023 132.731 17.4012 132.357 17.9626C132.138 18.3056 131.795 18.8825 131.328 19.6933C130.86 20.5042 130.376 21.3929 129.877 22.3597C129.41 23.2952 129.004 24.1684 128.661 24.9792C128.318 25.79 128.147 26.3825 128.147 26.7568C128.147 27.1933 128.365 27.4116 128.802 27.4116C129.145 27.4116 129.566 27.2401 130.065 26.8971C130.564 26.5229 131.078 26.0863 131.608 25.5873C132.513 24.7141 133.339 23.7474 134.087 22.6871C134.867 21.6268 135.538 20.6133 136.099 19.6466C136.192 19.4906 136.348 19.21 136.567 18.8046C136.816 18.3992 137.066 18.0094 137.315 17.6351C137.596 17.2609 137.814 17.0426 137.97 16.9803C138.126 16.9179 138.438 16.7464 138.906 16.4657C139.373 16.185 139.841 15.9979 140.309 15.9044C140.745 15.8108 141.073 15.764 141.291 15.764C141.634 15.764 141.806 15.8576 141.806 16.0447C141.806 16.2942 141.665 16.4189 141.385 16.4189C141.042 16.4189 140.73 16.5125 140.449 16.6996C140.169 16.8555 139.95 17.0582 139.794 17.3077C139.514 17.7131 139.108 18.4459 138.578 19.5062C138.079 20.5665 137.518 21.7983 136.894 23.2017C136.302 24.5738 135.709 25.9771 135.117 27.4116C134.524 28.815 133.978 30.1091 133.479 31.2942C132.731 33.0717 131.873 34.8025 130.907 36.4865C129.94 38.2017 128.802 39.7297 127.492 41.0707C126.213 42.4428 124.685 43.5187 122.908 44.2983C121.847 44.7661 120.678 45 119.399 45Z" fill="#DB7A69"/>
<path d="M155.404 30.4522C154.437 30.4522 153.517 30.1715 152.644 29.6102C151.771 29.08 151.116 28.2536 150.679 27.131C150.523 26.7256 150.414 26.289 150.352 25.8212C150.289 25.3534 150.258 24.9168 150.258 24.5114V24.0904C150.258 23.841 150.274 23.5915 150.305 23.342C150.367 23.0925 150.508 22.9678 150.726 22.9678C150.788 22.9678 150.82 22.999 150.82 23.0613C150.82 23.2484 150.804 23.4511 150.773 23.6694C150.773 23.8565 150.773 24.0437 150.773 24.2308C150.773 25.6965 151.131 26.8035 151.849 27.552C152.597 28.3004 153.517 28.6746 154.609 28.6746C155.7 28.6746 156.76 28.3628 157.789 27.7391C158.819 27.1154 159.77 26.3202 160.643 25.3534C161.516 24.3867 162.342 23.1861 163.122 21.7516C163.902 20.317 164.635 18.8046 165.321 17.2141C166.007 15.5925 166.646 14.0021 167.238 12.4428C167.862 10.8836 168.439 9.49584 168.969 8.27963C169.281 7.56237 169.858 6.95426 170.7 6.4553C171.573 5.95634 172.4 5.59771 173.179 5.37942C172.961 5.34823 172.743 5.33264 172.524 5.33264C172.337 5.30146 172.15 5.27027 171.963 5.23909L165.367 4.5842C164.868 4.52183 164.214 4.47505 163.403 4.44387C162.592 4.41268 161.734 4.39709 160.83 4.39709C159.614 4.39709 158.366 4.47505 157.088 4.63098C155.809 4.75572 154.655 4.98961 153.626 5.33264C152.597 5.67568 151.849 6.19023 151.381 6.8763C151.131 7.25052 151.007 7.68711 151.007 8.18607C151.007 8.68503 151.147 9.15281 151.428 9.5894C151.708 10.026 152.067 10.369 152.504 10.6185C152.566 10.6809 152.597 10.7277 152.597 10.7588C152.597 10.8524 152.519 10.9304 152.363 10.9927C152.239 11.0551 152.098 11.0551 151.942 10.9927C151.662 10.8368 151.334 10.5717 150.96 10.1975C150.586 9.82329 150.243 9.43347 149.931 9.02807C149.65 8.59148 149.447 8.23285 149.323 7.95218C149.136 7.42204 149.042 6.95426 149.042 6.54886C149.042 5.80042 149.292 5.19231 149.79 4.72453C150.321 4.22557 150.991 3.85135 151.802 3.60187C152.644 3.32121 153.533 3.1341 154.468 3.04054C155.435 2.9158 156.355 2.85343 157.228 2.85343C157.571 2.85343 157.899 2.85343 158.21 2.85343C158.522 2.85343 158.819 2.86902 159.099 2.90021C160.097 2.96258 161.142 3.02495 162.233 3.08732C163.325 3.14969 164.432 3.22765 165.554 3.32121L172.992 3.92932C173.491 3.9605 174.24 4.02287 175.237 4.11642C176.267 4.17879 177.311 4.20998 178.372 4.20998C179.525 4.20998 180.586 4.14761 181.552 4.02287C182.519 3.86694 183.158 3.60187 183.47 3.22765C183.533 3.10291 183.626 3.07173 183.751 3.1341C183.876 3.19647 183.907 3.27443 183.845 3.36798C183.751 3.74221 183.626 4.02287 183.47 4.20998C183.314 4.52183 183.096 4.86487 182.815 5.23909C182.566 5.61331 182.176 5.86279 181.646 5.98753C181.521 6.01871 181.35 6.0499 181.131 6.08108C180.913 6.08108 180.679 6.08108 180.43 6.08108C179.713 6.08108 178.839 6.0343 177.81 5.94075C176.812 5.81601 175.83 5.69127 174.863 5.56653C173.928 5.72245 173.117 6.15904 172.431 6.8763C171.745 7.59356 171.152 8.41996 170.653 9.35551C170.154 10.2599 169.718 11.1175 169.343 11.9283C168.657 13.3316 168.08 14.6258 167.613 15.8108C167.176 16.9647 166.63 18.2432 165.976 19.6466C165.321 21.0811 164.635 22.5 163.917 23.9033C163.2 25.2755 162.327 26.5229 161.298 27.6455C160.518 28.4875 159.614 29.158 158.585 29.657C157.556 30.1871 156.495 30.4522 155.404 30.4522Z" fill="#DB7A69"/>
<path d="M177.56 28.7682C177.248 28.7682 176.983 28.7058 176.764 28.5811C176.546 28.4563 176.437 28.2225 176.437 27.8794C176.437 27.4428 176.546 26.9439 176.764 26.3825C176.983 25.8212 177.232 25.2755 177.513 24.7453C177.793 24.184 178.043 23.7318 178.261 23.3888C177.17 24.5426 176.031 25.6341 174.846 26.6632C174.254 27.1622 173.599 27.6299 172.882 28.0665C172.165 28.5031 171.4 28.7214 170.59 28.7214C170.278 28.7214 170.06 28.6279 169.935 28.4407C169.81 28.2225 169.748 27.973 169.748 27.6923C169.748 27.5364 169.763 27.4272 169.794 27.3649C169.95 26.1486 170.34 24.8857 170.964 23.5759C171.588 22.2661 172.352 21.0343 173.256 19.8805C174.16 18.7266 175.08 17.7911 176.016 17.0738C177.076 16.263 178.246 15.8576 179.524 15.8576H184.904C185.06 15.8576 185.137 15.92 185.137 16.0447C185.137 16.2942 184.997 16.4189 184.716 16.4189C184.405 16.4189 184.093 16.6216 183.781 17.027C183.469 17.4012 183.235 17.7131 183.079 17.9626C182.861 18.3056 182.518 18.8825 182.05 19.6933C181.582 20.5042 181.099 21.3929 180.6 22.3597C180.132 23.2952 179.727 24.1684 179.384 24.9792C179.041 25.79 178.869 26.3825 178.869 26.7568C178.869 27.1933 179.088 27.4116 179.524 27.4116C179.992 27.4116 180.522 27.1933 181.115 26.7568C181.707 26.3202 182.3 25.79 182.892 25.1663C183.516 24.5114 184.077 23.8721 184.576 23.2484C185.106 22.5936 185.527 22.079 185.839 21.7048C186.026 21.8919 186.011 22.157 185.792 22.5C185.605 22.8119 185.434 23.0613 185.278 23.2484C184.654 24.0593 183.937 24.9012 183.126 25.7744C182.315 26.6164 181.426 27.3337 180.46 27.9262C179.524 28.4875 178.557 28.7682 177.56 28.7682ZM172.508 27.131C172.882 27.131 173.396 26.8659 174.051 26.3358C174.737 25.7744 175.47 25.0884 176.25 24.2775C177.029 23.4356 177.762 22.5624 178.448 21.658C179.134 20.7225 179.696 19.8805 180.132 19.132C180.6 18.3524 180.834 17.7599 180.834 17.3545C180.834 17.0114 180.725 16.7775 180.506 16.6528C180.319 16.5281 180.07 16.4657 179.758 16.4657C179.259 16.4657 178.713 16.6528 178.121 17.027C177.56 17.3701 177.107 17.7131 176.764 18.0561C176.39 18.3992 175.938 18.9449 175.408 19.6933C174.909 20.4106 174.41 21.2058 173.911 22.079C173.412 22.9522 172.991 23.7942 172.648 24.605C172.305 25.4158 172.133 26.0707 172.133 26.5696C172.133 26.9439 172.258 27.131 172.508 27.131Z" fill="#DB7A69"/>
<path d="M186.164 29.3295C186.039 29.3295 186.039 29.1892 186.164 28.9085C186.32 28.6279 186.46 28.316 186.585 27.973C186.741 27.6299 186.897 27.2557 187.053 26.8503C187.365 26.1019 187.708 25.2599 188.082 24.3243C188.456 23.3888 188.815 22.4844 189.158 21.6112C189.501 20.7069 189.797 19.9428 190.047 19.3191C190.327 18.6642 190.514 18.2432 190.608 18.0561C190.171 18.5239 189.641 19.1164 189.017 19.8337C188.425 20.5198 187.864 21.1902 187.333 21.8451C186.803 22.5 186.398 23.0146 186.117 23.3888C186.024 23.5135 185.946 23.5759 185.883 23.5759C185.821 23.5759 185.79 23.4979 185.79 23.342C185.79 23.0925 185.868 22.8586 186.024 22.6403C186.616 21.8919 187.271 21.0499 187.988 20.1143C188.737 19.1788 189.407 18.3212 190 17.5416C190.592 16.7308 190.967 16.2006 191.122 15.9511C191.466 15.8888 191.964 15.7952 192.619 15.6705C193.305 15.5457 193.773 15.3742 194.023 15.1559C194.116 15.0624 194.21 15.0156 194.303 15.0156C194.366 15.0156 194.397 15.078 194.397 15.2027C194.428 15.2963 194.397 15.4054 194.303 15.5301C194.116 15.7484 193.789 16.263 193.321 17.0738C192.884 17.8534 192.401 18.7266 191.871 19.6933C191.372 20.6601 190.904 21.5333 190.468 22.3129C190.842 21.8139 191.247 21.3306 191.684 20.8628C192.12 20.395 192.541 19.9428 192.947 19.5062C193.321 19.132 193.836 18.6642 194.49 18.1029C195.145 17.5416 195.831 17.027 196.549 16.5593C197.266 16.0915 197.89 15.8264 198.42 15.764C198.544 15.7328 198.654 15.7173 198.747 15.7173C198.872 15.7173 198.965 15.7173 199.028 15.7173C199.714 15.7173 200.057 15.9667 200.057 16.4657C200.057 16.8399 199.854 17.3389 199.449 17.9626C199.231 18.3056 198.888 18.8825 198.42 19.6933C197.983 20.473 197.531 21.3306 197.063 22.2661C196.627 23.1705 196.237 24.0281 195.894 24.8389C195.582 25.6185 195.426 26.1954 195.426 26.5696C195.426 27.0062 195.644 27.2245 196.081 27.2245C196.611 27.2245 197.188 26.9595 197.812 26.4293C198.467 25.8992 199.168 25.2287 199.917 24.4179C200.665 23.5759 201.414 22.6871 202.162 21.7516C202.224 21.8139 202.256 21.9231 202.256 22.079C202.256 22.2973 202.178 22.5156 202.022 22.7339C201.897 22.921 201.772 23.0925 201.647 23.2484C201.336 23.6538 200.915 24.1684 200.384 24.7921C199.885 25.3846 199.371 25.9771 198.841 26.5696C198.311 27.131 197.827 27.5832 197.391 27.9262C197.079 28.1445 196.673 28.3784 196.174 28.6279C195.675 28.8773 195.177 29.0021 194.678 29.0021C194.116 29.0021 193.726 28.8617 193.508 28.5811C193.29 28.2692 193.181 27.895 193.181 27.4584C193.181 26.9595 193.274 26.4293 193.461 25.868C193.648 25.3067 193.851 24.7765 194.069 24.2775C194.319 23.7474 194.506 23.3576 194.631 23.1081C195.192 22.0166 195.707 20.9875 196.174 20.0208C196.642 19.0541 196.97 18.368 197.157 17.9626C197.25 17.7755 197.297 17.6195 197.297 17.4948C197.297 17.2765 197.126 17.2609 196.783 17.448C196.44 17.6351 196.019 17.9158 195.52 18.29C195.052 18.6642 194.615 19.0385 194.21 19.4127C193.804 19.7557 193.539 19.9896 193.415 20.1143C192.261 21.3306 191.247 22.6871 190.374 24.184C189.532 25.6497 188.815 27.1622 188.222 28.7214C187.817 28.7526 187.411 28.8617 187.006 29.0489C186.601 29.236 186.32 29.3295 186.164 29.3295Z" fill="#DB7A69"/>
<path d="M208.621 28.7682C208.309 28.7682 208.044 28.7058 207.826 28.5811C207.607 28.4563 207.498 28.2225 207.498 27.8794C207.498 27.4428 207.607 26.9439 207.826 26.3825C208.044 25.8212 208.293 25.2755 208.574 24.7453C208.855 24.184 209.104 23.7318 209.323 23.3888C208.231 24.5426 207.093 25.6341 205.908 26.6632C205.315 27.1622 204.66 27.6299 203.943 28.0665C203.226 28.5031 202.462 28.7214 201.651 28.7214C201.339 28.7214 201.121 28.6279 200.996 28.4407C200.871 28.2225 200.809 27.973 200.809 27.6923C200.809 27.5364 200.825 27.4272 200.856 27.3649C201.012 26.1486 201.402 24.8857 202.025 23.5759C202.649 22.2661 203.413 21.0343 204.317 19.8805C205.222 18.7266 206.142 17.7911 207.077 17.0738C207.795 16.5437 208.481 16.2162 209.135 16.0915C209.79 15.9356 210.508 15.8576 211.287 15.8576H212.831C213.33 15.0156 213.844 14.08 214.375 13.0509C214.936 11.9906 215.482 10.9459 216.012 9.91684C216.573 8.88774 217.088 7.98337 217.555 7.20374C218.834 5.02079 220.237 3.27443 221.765 1.96466C223.325 0.654885 225.055 0 226.958 0C227.363 0 227.737 0.12474 228.08 0.374221C228.423 0.592517 228.579 0.935553 228.548 1.40333L228.455 3.08732C228.455 3.1185 228.423 3.16528 228.361 3.22765C228.299 3.25884 228.252 3.27443 228.221 3.27443C228.19 3.27443 228.143 3.24324 228.08 3.18087C227.987 2.61954 227.706 2.19855 227.238 1.91788C226.771 1.60603 226.194 1.4501 225.508 1.4501C225.289 1.4501 225.04 1.4657 224.759 1.49688C224.51 1.52807 224.26 1.59044 224.011 1.68399C223.138 1.99584 222.311 2.63514 221.532 3.60187C220.752 4.53742 219.91 5.78482 219.006 7.34408C218.694 7.93659 218.288 8.71622 217.789 9.68295C217.29 10.6185 216.76 11.632 216.199 12.7235C215.669 13.815 215.154 14.8753 214.655 15.9044C214.187 16.9335 213.782 17.8067 213.439 18.5239C213.283 18.8981 213.018 19.4751 212.644 20.2547C212.27 21.0031 211.864 21.8295 211.428 22.7339C211.022 23.6071 210.664 24.4179 210.352 25.1663C210.071 25.9148 209.931 26.4449 209.931 26.7568C209.931 27.1933 210.118 27.4116 210.492 27.4116C210.866 27.4116 211.365 27.1933 211.989 26.7568C212.613 26.289 213.252 25.7276 213.907 25.0728C214.593 24.3867 215.201 23.7318 215.731 23.1081C216.292 22.4844 216.682 22.0166 216.901 21.7048C216.994 21.7983 217.041 21.9075 217.041 22.0322C217.041 22.2505 216.947 22.4688 216.76 22.6871C216.604 22.9054 216.464 23.0925 216.339 23.2484C215.778 23.9969 215.076 24.8077 214.234 25.6809C213.423 26.5229 212.535 27.2557 211.568 27.8794C210.601 28.4719 209.619 28.7682 208.621 28.7682ZM203.569 27.131C203.943 27.131 204.458 26.8659 205.113 26.3358C205.799 25.7744 206.532 25.0884 207.311 24.2775C208.091 23.4356 208.824 22.5624 209.51 21.658C210.196 20.7225 210.757 19.8805 211.194 19.132C211.661 18.3524 211.895 17.7599 211.895 17.3545C211.895 17.0114 211.786 16.7775 211.568 16.6528C211.381 16.5281 211.131 16.4657 210.819 16.4657C210.32 16.4657 209.775 16.6528 209.182 17.027C208.621 17.3701 208.169 17.7131 207.826 18.0561C207.451 18.3992 206.999 18.9449 206.469 19.6933C205.97 20.4106 205.471 21.2058 204.972 22.079C204.473 22.9522 204.052 23.7942 203.709 24.605C203.366 25.4158 203.195 26.0707 203.195 26.5696C203.195 26.9439 203.319 27.131 203.569 27.131Z" fill="#DB7A69"/>
<path d="M217.693 28.7214C217.194 28.7214 216.742 28.6279 216.337 28.4407C215.962 28.2225 215.775 27.7703 215.775 27.0842C215.775 25.9927 216.056 24.9012 216.617 23.8098C217.179 22.6871 217.756 21.7048 218.348 20.8628C218.878 20.1455 219.471 19.4751 220.126 18.8514C220.812 18.1965 221.545 17.6351 222.324 17.1674C222.823 16.8555 223.494 16.5281 224.336 16.185C225.209 15.8108 225.942 15.6237 226.534 15.6237C227.033 15.6237 227.47 15.764 227.844 16.0447C228.218 16.2942 228.405 16.762 228.405 17.448C228.405 18.5083 228.125 19.5998 227.563 20.7225C227.033 21.8139 226.472 22.7807 225.879 23.6227C225.599 23.9969 225.318 24.3555 225.037 24.6985C224.757 25.0104 224.445 25.3378 224.102 25.6809C225.256 25.6809 226.316 25.3534 227.283 24.6985C228.249 24.0125 229.091 23.1861 229.809 22.2193L229.902 22.1258C229.996 22.1258 230.042 22.2193 230.042 22.4064C230.042 22.6247 229.98 22.8274 229.855 23.0146C229.232 23.8877 228.452 24.6674 227.516 25.3534C226.581 26.0083 225.521 26.3358 224.336 26.3358C224.211 26.3358 224.086 26.3358 223.961 26.3358C223.837 26.3358 223.712 26.3202 223.587 26.289C221.841 27.9106 219.876 28.7214 217.693 28.7214ZM218.909 27.9262C219.346 27.9262 219.814 27.7703 220.313 27.4584C220.843 27.1466 221.248 26.8503 221.529 26.5696C222.059 26.0395 222.542 25.4782 222.979 24.8857C223.416 24.262 223.821 23.6383 224.195 23.0146C224.632 22.2661 225.068 21.3773 225.505 20.3482C225.942 19.3191 226.16 18.3524 226.16 17.448C226.16 16.7308 225.91 16.3721 225.411 16.3721C225.006 16.3721 224.507 16.5437 223.915 16.8867C223.353 17.2297 222.932 17.5416 222.652 17.8222C221.591 18.9137 220.703 20.0988 219.985 21.3773C219.58 22.0946 219.143 22.9366 218.676 23.9033C218.208 24.8701 217.974 25.7588 217.974 26.5696C217.974 26.6944 217.974 26.8191 217.974 26.9439C218.005 27.0374 218.036 27.1466 218.067 27.2713C218.192 27.7079 218.473 27.9262 218.909 27.9262Z" fill="#DB7A69"/>
<path d="M230.541 29.3295C230.416 29.3295 230.416 29.1892 230.541 28.9085C230.697 28.6279 230.837 28.316 230.962 27.973C231.117 27.6299 231.273 27.2557 231.429 26.8503C231.741 26.1019 232.084 25.2599 232.458 24.3243C232.833 23.3888 233.191 22.4844 233.534 21.6112C233.877 20.7069 234.174 19.9428 234.423 19.3191C234.704 18.6642 234.891 18.2432 234.984 18.0561C234.548 18.5239 234.018 19.1164 233.394 19.8337C232.801 20.5198 232.24 21.1902 231.71 21.8451C231.18 22.5 230.774 23.0146 230.494 23.3888C230.4 23.5135 230.322 23.5759 230.26 23.5759C230.198 23.5759 230.166 23.4979 230.166 23.342C230.166 23.0925 230.244 22.8586 230.4 22.6403C230.993 21.8919 231.648 21.0499 232.365 20.1143C233.113 19.1788 233.784 18.3212 234.376 17.5416C234.969 16.7308 235.343 16.2006 235.499 15.9511C235.842 15.8888 236.341 15.7952 236.996 15.6705C237.682 15.5457 238.15 15.3742 238.399 15.1559C238.493 15.0624 238.586 15.0156 238.68 15.0156C238.742 15.0156 238.773 15.078 238.773 15.2027C238.805 15.2963 238.773 15.4054 238.68 15.5301C238.493 15.7484 238.165 16.263 237.698 17.0738C237.261 17.8534 236.778 18.7266 236.247 19.6933C235.748 20.6601 235.281 21.5333 234.844 22.3129C235.218 21.8139 235.624 21.3306 236.06 20.8628C236.497 20.395 236.918 19.9428 237.323 19.5062C237.698 19.132 238.212 18.6642 238.867 18.1029C239.522 17.5416 240.208 17.027 240.925 16.5593C241.642 16.0915 242.266 15.8264 242.796 15.764C242.921 15.7328 243.03 15.7173 243.124 15.7173C243.248 15.7173 243.342 15.7173 243.404 15.7173C244.09 15.7173 244.434 15.9667 244.434 16.4657C244.434 16.8399 244.231 17.3389 243.825 17.9626C243.607 18.3056 243.264 18.8825 242.796 19.6933C242.36 20.473 241.908 21.3306 241.44 22.2661C241.003 23.1705 240.613 24.0281 240.27 24.8389C239.958 25.6185 239.803 26.1954 239.803 26.5696C239.803 27.0062 240.021 27.2245 240.457 27.2245C240.988 27.2245 241.564 26.9595 242.188 26.4293C242.843 25.8992 243.545 25.2287 244.293 24.4179C245.042 23.5759 245.79 22.6871 246.539 21.7516C246.601 21.8139 246.632 21.9231 246.632 22.079C246.632 22.2973 246.554 22.5156 246.398 22.7339C246.273 22.921 246.149 23.0925 246.024 23.2484C245.712 23.6538 245.291 24.1684 244.761 24.7921C244.262 25.3846 243.747 25.9771 243.217 26.5696C242.687 27.131 242.204 27.5832 241.767 27.9262C241.455 28.1445 241.05 28.3784 240.551 28.6279C240.052 28.8773 239.553 29.0021 239.054 29.0021C238.493 29.0021 238.103 28.8617 237.885 28.5811C237.666 28.2692 237.557 27.895 237.557 27.4584C237.557 26.9595 237.651 26.4293 237.838 25.868C238.025 25.3067 238.228 24.7765 238.446 24.2775C238.695 23.7474 238.883 23.3576 239.007 23.1081C239.569 22.0166 240.083 20.9875 240.551 20.0208C241.019 19.0541 241.346 18.368 241.533 17.9626C241.627 17.7755 241.674 17.6195 241.674 17.4948C241.674 17.2765 241.502 17.2609 241.159 17.448C240.816 17.6351 240.395 17.9158 239.896 18.29C239.428 18.6642 238.992 19.0385 238.586 19.4127C238.181 19.7557 237.916 19.9896 237.791 20.1143C236.637 21.3306 235.624 22.6871 234.751 24.184C233.909 25.6497 233.191 27.1622 232.599 28.7214C232.193 28.7526 231.788 28.8617 231.383 29.0489C230.977 29.236 230.697 29.3295 230.541 29.3295Z" fill="#DB7A69"/>
</svg>
