<svg width="209" height="38" viewBox="0 0 209 38" fill="none" xmlns="http://www.w3.org/2000/svg">
<path d="M0.474012 24.9252C0.421344 24.9252 0.329175 24.8988 0.197505 24.8462C0.0658351 24.8198 0 24.7672 0 24.6881C0 24.6618 0.013167 24.6355 0.039501 24.6091C0.0658351 24.5828 0.0790021 24.5696 0.0790021 24.5696C0.26334 24.517 0.342342 24.4906 0.316008 24.4906C0.316008 24.517 0.408177 24.5038 0.592516 24.4511C1.04019 24.2931 1.42204 24.0693 1.73805 23.7796C2.08039 23.4636 2.37006 23.0949 2.60707 22.6736C3.84477 20.6195 5.0298 18.5392 6.16216 16.4324C7.29453 14.2994 8.42689 12.1795 9.55925 10.0728C9.87526 9.51975 10.1781 8.95357 10.4678 8.37422C10.7574 7.79487 11.0471 7.21552 11.3368 6.63617C11.4685 6.32017 11.6001 6.00416 11.7318 5.68815C11.8898 5.37214 12.061 5.0693 12.2453 4.77963C12.456 4.41095 12.7852 4.09494 13.2328 3.8316C13.7069 3.54193 14.1545 3.33126 14.5759 3.19959H13.6279C13.1012 3.19959 12.377 3.23909 11.4553 3.31809C10.5599 3.37076 9.61192 3.47609 8.61123 3.6341C7.61053 3.7921 6.71518 4.02911 5.92516 4.34511C5.16147 4.66112 4.63479 5.08247 4.34511 5.60915C4.08177 6.08316 3.9501 6.54401 3.9501 6.99168C3.9501 7.51836 4.06861 7.87387 4.30561 8.05821C4.54262 8.24255 4.66112 8.36105 4.66112 8.41372C4.66112 8.46639 4.62162 8.51906 4.54262 8.57173C4.46362 8.62439 4.39778 8.65073 4.34511 8.65073C4.18711 8.65073 3.9896 8.49272 3.7526 8.17671C3.51559 7.86071 3.29175 7.51836 3.08108 7.14969C2.89674 6.75468 2.77824 6.49134 2.72557 6.35967C2.64657 6.06999 2.60707 5.78032 2.60707 5.49065C2.60707 4.77963 2.84407 4.23978 3.31809 3.8711C3.81843 3.47609 4.42412 3.19958 5.13514 3.04158C5.84615 2.88358 6.55717 2.79141 7.26819 2.76507C8.00554 2.7124 8.61123 2.68607 9.08524 2.68607C10.4019 2.68607 11.7186 2.65974 13.0353 2.60707C14.352 2.52807 15.6556 2.48857 16.9459 2.48857C18.1836 2.48857 19.395 2.58073 20.58 2.76507C21.7914 2.92308 22.8843 3.25225 23.8586 3.7526C24.833 4.25295 25.6098 4.96396 26.1892 5.88566C26.7949 6.80735 27.0977 8.01871 27.0977 9.51975C27.0977 10.8891 26.8344 12.298 26.3077 13.7464C25.8073 15.1684 25.1753 16.4456 24.4116 17.578C21.1989 22.3971 16.6958 24.8067 10.9023 24.8067C10.0069 24.8067 9.08524 24.7145 8.13721 24.5301C7.21552 24.3458 6.3465 24.043 5.53015 23.6216C5.34581 23.5163 5.1483 23.4373 4.93763 23.3846C4.75329 23.3056 4.55579 23.2661 4.34511 23.2661C3.89744 23.2661 3.44976 23.4109 3.00208 23.7006C2.5544 23.964 2.11989 24.2273 1.69854 24.4906C1.2772 24.7803 0.869023 24.9252 0.474012 24.9252ZM10.4283 24.2536C12.4033 24.2536 14.2467 23.8718 15.9584 23.1081C17.6701 22.3444 19.1712 21.2779 20.4615 19.9085C21.7519 18.5128 22.7658 16.9196 23.5031 15.1289C23.8455 14.2862 24.122 13.404 24.3326 12.4823C24.5696 11.5606 24.6882 10.6521 24.6882 9.75676C24.6882 7.7027 24.0561 6.12266 22.7921 5.01663C21.5544 3.88427 19.9217 3.31809 17.894 3.31809C17.3936 3.31809 16.8669 3.37076 16.3139 3.47609C15.7872 3.58143 15.3527 3.8316 15.0104 4.22661C14.6681 4.64796 14.3389 5.1088 14.0229 5.60915C13.7332 6.10949 13.4435 6.59667 13.1538 7.07069C12.5482 8.12405 11.9688 9.21691 11.4158 10.3493C10.8891 11.4553 10.3493 12.5482 9.79626 13.6279C8.92724 15.2869 8.07138 16.9591 7.22869 18.6445C7.04435 19.0132 6.84685 19.395 6.63617 19.79C6.45184 20.1587 6.2675 20.5274 6.08316 20.8961C6.03049 21.0277 5.97782 21.1726 5.92516 21.3306C5.87249 21.4622 5.84615 21.6202 5.84615 21.8046C5.84615 22.1469 5.95149 22.4366 6.16216 22.6736C6.37283 22.9106 6.59667 23.1344 6.83368 23.3451C7.33403 23.7138 7.91338 23.964 8.57173 24.0956C9.23008 24.201 9.84893 24.2536 10.4283 24.2536Z" fill="#DB7A69"/>
<path d="M27.1758 24.7277C27.0705 24.7277 27.0705 24.6223 27.1758 24.4116C27.3075 24.1746 27.426 23.9113 27.5313 23.6216C27.663 23.3319 27.7946 23.0159 27.9263 22.6736C28.1896 22.0416 28.4793 21.3306 28.7953 20.5405C29.1113 19.7505 29.4142 18.9868 29.7039 18.2495C29.9935 17.4858 30.2437 16.8406 30.4544 16.3139C30.6914 15.7609 30.8494 15.4054 30.9284 15.2474C30.5597 15.6424 30.112 16.1428 29.5854 16.7484C29.085 17.3278 28.611 17.894 28.1633 18.447C27.7156 19 27.3733 19.4345 27.1363 19.7505C27.0573 19.8559 26.9914 19.9085 26.9388 19.9085C26.8861 19.9085 26.8598 19.8427 26.8598 19.711C26.8598 19.5003 26.9256 19.3028 27.0573 19.1185C27.5576 18.4865 28.1106 17.7755 28.7163 16.9854C29.3483 16.1954 29.9145 15.4712 30.4149 14.8129C30.9152 14.1282 31.2312 13.6805 31.3629 13.4699C31.6526 13.4172 32.0739 13.3382 32.6269 13.2328C33.2063 13.1275 33.6013 12.9827 33.812 12.7983C33.891 12.7193 33.97 12.6798 34.049 12.6798C34.1016 12.6798 34.128 12.7325 34.128 12.8378C34.1543 12.9168 34.128 13.009 34.049 13.1143C33.891 13.2723 33.654 13.6147 33.338 14.1414C33.0483 14.6681 32.7191 15.2737 32.3504 15.9584C31.9817 16.6431 31.6262 17.3015 31.2839 17.9335C31.5472 17.5385 31.8896 17.0776 32.3109 16.5509C32.7586 15.9979 33.2458 15.4712 33.7725 14.9709C34.2991 14.4442 34.8258 14.0097 35.3525 13.6674C35.9055 13.325 36.419 13.1538 36.893 13.1538C37.2354 13.1538 37.5251 13.2328 37.7621 13.3909C37.9991 13.5225 38.1834 13.7727 38.3151 14.1414C38.3941 14.3257 38.4336 14.5364 38.4336 14.7734C38.4336 15.2211 38.3151 15.6556 38.0781 16.0769C37.8674 16.4719 37.7094 16.7748 37.6041 16.9854C37.5777 17.0644 37.4856 17.1435 37.3276 17.2225C37.1696 17.2751 37.1037 17.2488 37.1301 17.1435C37.1564 17.0118 37.1696 16.8801 37.1696 16.7484C37.1959 16.6168 37.2091 16.4719 37.2091 16.3139C37.2091 15.8663 37.1169 15.4581 36.9325 15.0894C36.7745 14.7207 36.4717 14.5364 36.024 14.5364C35.6027 14.5364 35.0892 14.7997 34.4835 15.3264C33.8778 15.8531 33.2721 16.4588 32.6664 17.1435C31.9027 18.0388 31.2971 18.8947 30.8494 19.711C30.4017 20.501 30.033 21.2779 29.7434 22.0416C29.5854 22.4629 29.4273 22.8843 29.2693 23.3056C29.1113 23.7006 28.9928 24.0166 28.9138 24.2536C28.5715 24.28 28.2292 24.359 27.8868 24.4906C27.5445 24.6486 27.3075 24.7277 27.1758 24.7277Z" fill="#DB7A69"/>
<path d="M39.9133 24.4116C39.65 24.4116 39.3735 24.3195 39.0838 24.1351C38.8205 23.9245 38.6098 23.727 38.4518 23.5426C38.4255 23.49 38.5308 23.3846 38.7678 23.2266C39.0048 23.0423 39.255 22.8711 39.5183 22.7131C39.808 22.5551 39.966 22.4893 39.9923 22.5156C40.203 22.6209 40.4137 22.7394 40.6243 22.8711C40.835 22.9764 41.0589 23.0159 41.2959 22.9896H41.4539C41.5855 22.9896 41.6514 23.0291 41.6514 23.1081C41.6514 23.1871 41.5592 23.3188 41.3749 23.5031C41.1379 23.6875 40.8877 23.885 40.6243 24.0956C40.3873 24.3063 40.1503 24.4116 39.9133 24.4116Z" fill="#DB7A69"/>
<path d="M69.9483 25.0832C69.29 25.0832 68.6184 24.8725 67.9338 24.4511C67.2754 24.0561 66.6039 23.4109 65.9192 22.5156C65.0765 21.3569 64.3655 20.2509 63.7862 19.1975C63.2068 18.1441 62.7328 17.2225 62.3641 16.4324C62.0218 15.6424 61.7584 15.0762 61.5741 14.7339C61.5741 14.7339 61.6399 14.6549 61.7716 14.4969C61.9033 14.3125 62.0613 14.1414 62.2456 13.9834C62.4563 13.799 62.6275 13.7069 62.7591 13.7069C63.9968 13.7069 65.1029 13.6937 66.0772 13.6674C67.0779 13.6147 67.9601 13.4567 68.7238 13.1933C69.5138 12.9037 70.2117 12.4165 70.8173 11.7318C71.423 11.0471 71.9365 10.0728 72.3579 8.80873C72.4896 8.49272 72.5686 8.17672 72.5949 7.86071C72.6476 7.51837 72.6739 7.18919 72.6739 6.87318C72.6739 5.97782 72.4501 5.1878 72.0024 4.50312C71.5547 3.81843 70.9095 3.42342 70.0668 3.31809C69.9615 3.29175 69.843 3.27859 69.7113 3.27859C69.5796 3.27859 69.448 3.27859 69.3163 3.27859C68.816 3.27859 68.2629 3.34442 67.6573 3.47609C67.0779 3.60776 66.6434 3.85794 66.3537 4.22661C65.6954 5.09563 65.0634 6.08316 64.4577 7.18919C63.852 8.26888 63.2726 9.37491 62.7196 10.5073C62.1666 11.6133 61.6399 12.6535 61.1396 13.6279C61.0079 13.8912 60.7577 14.3652 60.3891 15.0499C60.0204 15.7082 59.6122 16.4719 59.1645 17.341C58.7169 18.1836 58.2955 19.0263 57.9005 19.869C57.5055 20.7117 57.1895 21.4622 56.9525 22.1206C56.7418 22.7789 56.6891 23.2266 56.7945 23.4636C56.8208 23.49 56.834 23.5295 56.834 23.5821C56.834 23.6611 56.7945 23.7006 56.7155 23.7006C56.5048 23.7006 56.2941 23.648 56.0835 23.5426C55.8728 23.4373 55.6226 23.3846 55.3329 23.3846C55.0696 23.3846 54.8063 23.4504 54.5429 23.5821C54.2796 23.6875 53.9372 23.885 53.5159 24.1746C53.0945 24.4643 52.6205 24.7013 52.0938 24.8857C52.0412 24.912 51.9622 24.9252 51.8568 24.9252C51.6725 24.9252 51.5277 24.8725 51.4223 24.7672C51.317 24.6881 51.317 24.6223 51.4223 24.5696C52.0017 24.4643 52.502 24.2536 52.9234 23.9376C53.3447 23.5953 53.6871 23.1739 53.9504 22.6736C54.5034 21.7519 55.0433 20.8302 55.5699 19.9085C56.123 18.9605 56.6496 18.0125 57.15 17.0644C57.7557 15.9058 58.3745 14.7471 59.0065 13.5884C59.6385 12.4033 60.2706 11.2315 60.9026 10.0728C61.5083 8.99307 62.0481 7.95288 62.5221 6.95218C62.9961 5.95149 63.3516 5.2273 63.5887 4.77963C63.773 4.43728 64.089 4.13444 64.5367 3.8711C65.0107 3.58143 65.4715 3.35759 65.9192 3.19959C65.7612 3.19959 65.6032 3.19959 65.4452 3.19959C65.2872 3.17325 65.116 3.16008 64.9317 3.16008C64.1153 3.16008 63.22 3.21275 62.2456 3.31809C61.2976 3.39709 60.3627 3.52876 59.441 3.7131C58.5457 3.89744 57.7557 4.14761 57.071 4.46362C56.3863 4.77963 55.9254 5.16147 55.6884 5.60915C55.5831 5.84615 55.4909 6.08316 55.4119 6.32017C55.3329 6.55717 55.2934 6.79418 55.2934 7.03119C55.2934 7.63687 55.5041 8.07138 55.9254 8.33472C55.9518 8.33472 55.9649 8.36105 55.9649 8.41372C55.9649 8.46639 55.9123 8.51906 55.8069 8.57173C55.7279 8.62439 55.6621 8.63756 55.6094 8.61123C55.3461 8.47956 55.0433 8.16355 54.7009 7.6632C54.3849 7.13652 54.1742 6.70201 54.0689 6.35967C53.9899 6.04366 53.9504 5.75399 53.9504 5.49065C53.9504 4.80596 54.1742 4.27928 54.6219 3.9106C55.0696 3.51559 55.6358 3.23909 56.3205 3.08108C57.0051 2.89674 57.703 2.79141 58.414 2.76507C59.1514 2.7124 59.7966 2.68607 60.3496 2.68607C61.1923 2.68607 62.1929 2.68607 63.3516 2.68607C64.5103 2.65974 65.5769 2.64657 66.5512 2.64657C66.7882 2.64657 67.0516 2.64657 67.3412 2.64657C67.6309 2.62024 67.9338 2.60707 68.2498 2.60707C68.9608 2.60707 69.6981 2.64657 70.4618 2.72557C71.2255 2.80457 71.9234 2.97575 72.5554 3.23909C73.1874 3.50243 73.6746 3.9106 74.0169 4.46362C74.4646 5.20097 74.6884 6.04366 74.6884 6.99168C74.6884 8.44006 74.3066 9.65142 73.5429 10.6258C73.2796 10.9681 72.9899 11.2973 72.6739 11.6133C72.3579 11.9293 71.9892 12.2322 71.5679 12.5218C70.8832 12.9958 70.0668 13.404 69.1188 13.7464C68.1708 14.0624 67.1832 14.2994 66.1562 14.4574C65.1555 14.6154 64.2338 14.7207 63.3911 14.7734C63.7335 15.5107 64.247 16.4983 64.9317 17.736C65.6427 18.9737 66.4986 20.2114 67.4993 21.4491C68.0259 22.1074 68.5658 22.5683 69.1188 22.8316C69.6718 23.0949 70.2117 23.2266 70.7383 23.2266C71.581 23.2266 72.3711 22.9764 73.1084 22.4761C73.8721 21.9757 74.5568 21.3964 75.1625 20.738C75.7945 20.0534 76.2948 19.4608 76.6635 18.9605C76.7425 18.8288 76.8083 18.763 76.861 18.763C76.94 18.763 76.9795 18.842 76.9795 19C76.9795 19.2107 76.9005 19.4213 76.7425 19.632C75.5311 21.2911 74.3724 22.6209 73.2664 23.6216C72.1604 24.596 71.0543 25.0832 69.9483 25.0832Z" fill="#DB7A69"/>
<path d="M79.4113 24.2931C79.1479 24.2931 78.9241 24.2405 78.7398 24.1351C78.5554 24.0298 78.4633 23.8323 78.4633 23.5426C78.4633 23.1739 78.5554 22.7394 78.7398 22.2391C78.9504 21.7387 79.1743 21.2384 79.4113 20.738C79.6483 20.2377 79.8458 19.8295 80.0038 19.5135C80.3198 18.9078 80.6226 18.3021 80.9123 17.6965C81.202 17.0908 81.4522 16.5773 81.6628 16.1559C81.8735 15.7609 81.9788 15.4976 81.9788 15.3659C81.9788 15.1552 81.8208 15.1552 81.5048 15.3659C81.2152 15.5766 80.9387 15.7872 80.6753 15.9979C80.096 16.5509 79.4903 17.2093 78.8583 17.973C78.2262 18.7103 77.7391 19.3028 77.3967 19.7505C77.3177 19.8559 77.2519 19.9085 77.1992 19.9085C77.1466 19.9085 77.1202 19.8427 77.1202 19.711C77.1202 19.5003 77.1861 19.3028 77.3177 19.1185C77.6864 18.5918 78.1209 18.0125 78.6213 17.3805C79.1216 16.7484 79.6351 16.1428 80.1618 15.5634C80.6621 15.0367 81.1757 14.5232 81.7023 14.0229C82.229 13.5225 82.9005 13.2723 83.7169 13.2723C84.2699 13.2723 84.5464 13.483 84.5464 13.9044C84.5464 14.273 84.3884 14.6944 84.0724 15.1684C83.8881 15.4581 83.5984 15.9453 83.2034 16.6299C82.8084 17.3146 82.4002 18.0651 81.9788 18.8815C81.5838 19.6715 81.2415 20.4089 80.9518 21.0936C80.6621 21.7782 80.5173 22.2786 80.5173 22.5946C80.5173 22.9633 80.7016 23.1476 81.0703 23.1476C81.36 23.1476 81.7155 23.0028 82.1369 22.7131C82.5582 22.3971 82.9927 22.0284 83.4404 21.6071C84.2567 20.817 84.9941 19.9612 85.6524 19.0395C86.3371 18.0915 86.9165 17.183 87.3905 16.3139C87.8908 15.4449 88.2858 14.7339 88.5755 14.1809C88.6282 14.0755 88.6809 13.957 88.7335 13.8254C88.8125 13.6674 88.931 13.5752 89.089 13.5489C89.247 13.5225 89.5894 13.5094 90.1161 13.5094C90.6427 13.5094 91.1299 13.404 91.5776 13.1933H91.6566C91.7356 13.1933 91.7751 13.2328 91.7751 13.3119C91.7751 13.5225 91.6039 13.6805 91.2616 13.7859C90.9456 13.8912 90.5769 14.2072 90.1556 14.7339C89.7606 15.2606 89.3655 15.9058 88.9705 16.6694C88.5755 17.4068 88.22 18.1705 87.904 18.9605C87.588 19.7505 87.351 20.4747 87.193 21.1331C87.035 21.7914 86.9955 22.2786 87.0745 22.5946C87.1798 22.9633 87.3642 23.1476 87.6275 23.1476C87.9698 23.1476 88.4439 22.9369 89.0495 22.5156C89.6815 22.0942 90.3267 21.5939 90.9851 21.0146C91.6434 20.4089 92.1833 19.8559 92.6046 19.3555C92.789 19.1448 92.9601 18.9342 93.1181 18.7235C93.2761 18.5128 93.3815 18.3812 93.4342 18.3285C93.4605 18.3548 93.4868 18.4075 93.5132 18.4865C93.5395 18.5392 93.5527 18.5918 93.5527 18.6445C93.5263 18.8288 93.4605 19.0132 93.3551 19.1975C93.2498 19.3555 93.1313 19.5003 92.9996 19.632C92.4993 20.2904 91.8936 20.9882 91.1826 21.7256C90.4979 22.4366 89.7474 23.0423 88.931 23.5426C88.141 24.043 87.3247 24.2931 86.482 24.2931C86.2186 24.2931 85.9158 24.2273 85.5734 24.0956C85.2574 23.964 85.0994 23.6743 85.0994 23.2266C85.0994 22.8843 85.1916 22.4234 85.3759 21.8441C85.5603 21.2384 85.7578 20.6459 85.9685 20.0665C86.2055 19.4608 86.403 19.0132 86.561 18.7235C86.2186 19.2238 85.7973 19.79 85.2969 20.422C84.8229 21.0277 84.3357 21.5676 83.8354 22.0416C83.177 22.6736 82.466 23.2134 81.7023 23.6611C80.965 24.0825 80.2013 24.2931 79.4113 24.2931Z" fill="#DB7A69"/>
<path d="M95.1555 24.5301C94.8132 24.5301 94.405 24.4643 93.931 24.3326C93.457 24.2273 93.22 23.9376 93.22 23.4636C93.22 23.2793 93.2595 23.0686 93.3385 22.8316C93.4175 22.5946 93.4965 22.3839 93.5755 22.1996C93.8388 21.5149 94.1153 20.817 94.405 20.106C94.6947 19.395 94.9975 18.6708 95.3135 17.9335C94.9712 18.3285 94.642 18.6972 94.326 19.0395C94.0363 19.3555 93.8257 19.5925 93.694 19.7505C93.615 19.8559 93.5492 19.9085 93.4965 19.9085C93.4438 19.9085 93.4175 19.8427 93.4175 19.711C93.4175 19.5003 93.4833 19.3028 93.615 19.1185C93.9837 18.6445 94.405 18.1441 94.879 17.6175C95.353 17.0908 95.8139 16.5378 96.2616 15.9584C97.3676 13.641 98.6053 11.4026 99.9747 9.24324C101.344 7.05752 102.885 5.12197 104.596 3.43659C105.123 2.93624 105.715 2.42273 106.374 1.89605C107.032 1.36937 107.73 0.921691 108.467 0.553014C109.231 0.184338 109.982 0 110.719 0C111.114 0 111.469 0.105336 111.785 0.316009C112.128 0.526682 112.312 0.855857 112.338 1.30353V2.44907C112.338 2.5544 112.259 2.60707 112.101 2.60707C112.022 2.60707 111.983 2.58074 111.983 2.52807C111.983 2.10672 111.799 1.83022 111.43 1.69855C111.061 1.54054 110.693 1.46154 110.324 1.46154C108.876 1.46154 107.572 1.84338 106.413 2.60707C105.255 3.34442 104.228 4.31878 103.332 5.53015C102.437 6.71518 101.634 8.03188 100.923 9.48025C100.212 10.9023 99.5665 12.3112 98.9871 13.7069C98.4341 15.0762 97.9074 16.3008 97.4071 17.3805C97.4071 17.3805 97.4071 17.4068 97.4071 17.4595C97.4071 17.5121 97.4203 17.5385 97.4466 17.5385C97.4729 17.5385 97.6836 17.341 98.0786 16.9459C98.5 16.5246 99.0135 16.0374 99.6192 15.4844C100.251 14.9314 100.91 14.4574 101.594 14.0624C102.279 13.641 102.911 13.4304 103.49 13.4304C103.78 13.4304 103.964 13.5357 104.043 13.7464C104.122 13.9307 104.162 14.1414 104.162 14.3784V14.7339C104.03 15.7082 103.688 16.7616 103.135 17.894C102.608 19.0263 101.923 20.106 101.081 21.1331C100.264 22.1337 99.3426 22.9501 98.3156 23.5821C97.3149 24.2141 96.2616 24.5301 95.1555 24.5301ZM95.7875 23.8586C96.2089 23.8586 96.6566 23.7006 97.1306 23.3846C97.6309 23.0423 98.0128 22.7394 98.2761 22.4761C98.5921 22.1864 98.974 21.7387 99.4216 21.1331C99.8693 20.501 100.304 19.8164 100.725 19.079C101.147 18.3416 101.502 17.6306 101.792 16.9459C102.081 16.2613 102.226 15.7082 102.226 15.2869C102.226 15.1552 102.2 15.0367 102.147 14.9314C102.095 14.8261 102.002 14.7734 101.871 14.7734C101.634 14.7734 101.318 14.9182 100.923 15.2079C100.554 15.4976 100.146 15.8531 99.6982 16.2744C99.2768 16.6694 98.8818 17.0644 98.5131 17.4595C98.1708 17.8281 97.9206 18.1046 97.7626 18.289C97.4729 18.605 97.1043 19.0658 96.6566 19.6715C96.2089 20.2772 95.8007 20.896 95.432 21.5281C95.0897 22.1337 94.9185 22.6473 94.9185 23.0686C94.9185 23.5953 95.2082 23.8586 95.7875 23.8586Z" fill="#DB7A69"/>
<path d="M100.826 38C99.8254 38 98.8642 37.763 97.9425 37.289C96.9945 36.8413 96.2966 36.1434 95.849 35.1954C95.691 34.8531 95.5856 34.4844 95.5329 34.0894C95.4803 33.7207 95.4539 33.352 95.4539 32.9834V32.5489C95.4539 32.3382 95.4803 32.1407 95.5329 31.9563C95.5856 31.7983 95.7173 31.7193 95.928 31.7193C95.9806 31.7193 96.007 31.7457 96.007 31.7983C96.007 31.9563 95.9938 32.1143 95.9675 32.2723C95.9411 32.4304 95.928 32.6015 95.928 32.7859C95.928 33.9972 96.323 34.9189 97.113 35.5509C97.8767 36.183 98.8379 36.499 99.9966 36.499C100.471 36.499 100.958 36.4463 101.458 36.341C101.958 36.2356 102.432 36.0908 102.88 35.9064C104.539 35.1954 105.974 34.1816 107.186 32.8649C108.423 31.5745 109.503 30.113 110.425 28.4802C111.347 26.8475 112.176 25.1885 112.913 23.5031C113.335 22.5024 113.703 21.5281 114.019 20.58C114.362 19.632 114.665 18.7762 114.928 18.0125C114.665 18.3812 114.322 18.8288 113.901 19.3555C113.48 19.8822 113.058 20.3957 112.637 20.8961C112.216 21.3701 111.847 21.7519 111.531 22.0416C110.873 22.6736 110.162 23.2134 109.398 23.6611C108.66 24.0825 107.897 24.2931 107.107 24.2931C106.843 24.2931 106.62 24.2405 106.435 24.1351C106.251 24.0298 106.159 23.8323 106.159 23.5426C106.159 23.1739 106.251 22.7394 106.435 22.2391C106.646 21.7387 106.87 21.2384 107.107 20.738C107.344 20.2377 107.541 19.8295 107.699 19.5135C108.015 18.9078 108.318 18.3021 108.608 17.6965C108.897 17.0908 109.148 16.5773 109.358 16.1559C109.569 15.7609 109.674 15.4976 109.674 15.3659C109.674 15.1552 109.516 15.1552 109.2 15.3659C108.911 15.5766 108.634 15.7872 108.371 15.9979C107.791 16.5509 107.186 17.2093 106.554 17.973C105.922 18.7103 105.435 19.3028 105.092 19.7505C105.013 19.8559 104.947 19.9085 104.895 19.9085C104.842 19.9085 104.816 19.8427 104.816 19.711C104.816 19.5003 104.882 19.3028 105.013 19.1185C105.382 18.5918 105.816 18.0125 106.317 17.3805C106.817 16.7484 107.331 16.1428 107.857 15.5634C108.358 15.0367 108.871 14.5232 109.398 14.0229C109.924 13.5225 110.596 13.2723 111.412 13.2723C111.965 13.2723 112.242 13.483 112.242 13.9044C112.242 14.273 112.084 14.6944 111.768 15.1684C111.584 15.4581 111.294 15.9453 110.899 16.6299C110.504 17.3146 110.096 18.0651 109.674 18.8815C109.279 19.6715 108.937 20.4089 108.647 21.0936C108.358 21.7782 108.213 22.2786 108.213 22.5946C108.213 22.9633 108.397 23.1476 108.766 23.1476C109.055 23.1476 109.411 23.0028 109.832 22.7131C110.254 22.3971 110.688 22.0284 111.136 21.6071C111.9 20.8697 112.597 20.0534 113.229 19.158C113.888 18.2626 114.454 17.4068 114.928 16.5904C115.007 16.4588 115.139 16.2218 115.323 15.8794C115.534 15.5371 115.744 15.2079 115.955 14.8919C116.192 14.5759 116.376 14.3915 116.508 14.3389C116.64 14.2862 116.903 14.1414 117.298 13.9044C117.693 13.6674 118.088 13.5094 118.483 13.4304C118.852 13.3514 119.128 13.3119 119.313 13.3119C119.602 13.3119 119.747 13.3909 119.747 13.5489C119.747 13.7595 119.629 13.8649 119.392 13.8649C119.102 13.8649 118.839 13.9439 118.602 14.1019C118.365 14.2335 118.18 14.4047 118.049 14.6154C117.812 14.9577 117.469 15.5766 117.022 16.4719C116.6 17.3673 116.126 18.4075 115.599 19.5925C115.099 20.7512 114.599 21.9362 114.098 23.1476C113.598 24.3326 113.137 25.4255 112.716 26.4262C112.084 27.9272 111.36 29.3888 110.543 30.8108C109.727 32.2592 108.766 33.5495 107.66 34.6819C106.58 35.8406 105.29 36.7491 103.789 37.4075C102.893 37.8025 101.906 38 100.826 38Z" fill="#DB7A69"/>
<path d="M131.23 25.7152C130.414 25.7152 129.637 25.4782 128.899 25.0042C128.162 24.5565 127.609 23.8586 127.24 22.9106C127.109 22.5683 127.016 22.1996 126.964 21.8046C126.911 21.4096 126.885 21.0409 126.885 20.6985V20.343C126.885 20.1324 126.898 19.9217 126.924 19.711C126.977 19.5003 127.095 19.395 127.28 19.395C127.332 19.395 127.359 19.4213 127.359 19.474C127.359 19.632 127.346 19.8032 127.319 19.9875C127.319 20.1455 127.319 20.3035 127.319 20.4615C127.319 21.6992 127.622 22.6341 128.228 23.2661C128.86 23.8981 129.637 24.2141 130.558 24.2141C131.48 24.2141 132.375 23.9508 133.244 23.4241C134.113 22.8974 134.917 22.2259 135.654 21.4096C136.391 20.5932 137.089 19.5793 137.748 18.368C138.406 17.1566 139.025 15.8794 139.604 14.5364C140.183 13.167 140.723 11.824 141.224 10.5073C141.75 9.19057 142.237 8.01871 142.685 6.99168C142.948 6.386 143.436 5.87249 144.147 5.45114C144.884 5.0298 145.582 4.72696 146.24 4.54262C146.056 4.51629 145.872 4.50312 145.687 4.50312C145.529 4.47679 145.371 4.45045 145.213 4.42412L139.644 3.8711C139.222 3.81843 138.669 3.77893 137.985 3.7526C137.3 3.72627 136.576 3.7131 135.812 3.7131C134.785 3.7131 133.732 3.77893 132.652 3.9106C131.572 4.01594 130.598 4.21345 129.729 4.50312C128.86 4.79279 128.228 5.2273 127.833 5.80665C127.622 6.12266 127.517 6.49134 127.517 6.91268C127.517 7.33403 127.635 7.72904 127.872 8.09771C128.109 8.46639 128.412 8.75606 128.781 8.96674C128.833 9.0194 128.86 9.05891 128.86 9.08524C128.86 9.16424 128.794 9.23008 128.662 9.28275C128.557 9.33541 128.438 9.33541 128.307 9.28275C128.07 9.15107 127.793 8.92724 127.477 8.61123C127.161 8.29522 126.872 7.96604 126.608 7.6237C126.371 7.25502 126.2 6.95218 126.095 6.71518C125.937 6.2675 125.858 5.87249 125.858 5.53015C125.858 4.89813 126.068 4.38462 126.49 3.98961C126.937 3.56826 127.504 3.25225 128.188 3.04158C128.899 2.80457 129.65 2.64657 130.44 2.56757C131.256 2.46223 132.033 2.40957 132.77 2.40957C133.06 2.40957 133.337 2.40957 133.6 2.40957C133.863 2.40957 134.113 2.42273 134.35 2.44907C135.193 2.50173 136.075 2.5544 136.997 2.60707C137.919 2.65974 138.854 2.72557 139.802 2.80458L146.082 3.31809C146.504 3.34442 147.136 3.39709 147.978 3.47609C148.847 3.52876 149.73 3.55509 150.625 3.55509C151.599 3.55509 152.495 3.50243 153.311 3.39709C154.127 3.26542 154.667 3.04158 154.93 2.72557C154.983 2.62024 155.062 2.5939 155.167 2.64657C155.273 2.69924 155.299 2.76507 155.246 2.84408C155.167 3.16008 155.062 3.39709 154.93 3.55509C154.799 3.81843 154.614 4.10811 154.377 4.42412C154.167 4.74013 153.838 4.9508 153.39 5.05613C153.285 5.08247 153.14 5.1088 152.955 5.13514C152.771 5.13514 152.574 5.13514 152.363 5.13514C151.757 5.13514 151.02 5.09563 150.151 5.01663C149.308 4.9113 148.479 4.80596 147.662 4.70062C146.872 4.83229 146.188 5.20097 145.608 5.80665C145.029 6.41234 144.529 7.11019 144.107 7.90021C143.686 8.66389 143.317 9.38808 143.001 10.0728C142.422 11.2578 141.935 12.3507 141.54 13.3514C141.171 14.3257 140.71 15.4054 140.157 16.5904C139.604 17.8018 139.025 19 138.419 20.185C137.813 21.3437 137.076 22.3971 136.207 23.3451C135.549 24.0561 134.785 24.6223 133.916 25.0437C133.047 25.4913 132.152 25.7152 131.23 25.7152Z" fill="#DB7A69"/>
<path d="M149.939 24.2931C149.676 24.2931 149.452 24.2405 149.268 24.1351C149.083 24.0298 148.991 23.8323 148.991 23.5426C148.991 23.1739 149.083 22.7526 149.268 22.2786C149.452 21.8046 149.663 21.3437 149.9 20.8961C150.137 20.422 150.347 20.0402 150.532 19.7505C149.61 20.7249 148.649 21.6466 147.648 22.5156C147.148 22.9369 146.595 23.3319 145.989 23.7006C145.383 24.0693 144.738 24.2536 144.053 24.2536C143.79 24.2536 143.606 24.1746 143.5 24.0166C143.395 23.8323 143.342 23.6216 143.342 23.3846C143.342 23.2529 143.356 23.1608 143.382 23.1081C143.514 22.0811 143.843 21.0146 144.37 19.9085C144.896 18.8025 145.541 17.7623 146.305 16.7879C147.069 15.8136 147.846 15.0236 148.636 14.4179C149.531 13.7332 150.519 13.3909 151.598 13.3909H156.141C156.272 13.3909 156.338 13.4435 156.338 13.5489C156.338 13.7595 156.22 13.8649 155.983 13.8649C155.719 13.8649 155.456 14.036 155.193 14.3784C154.929 14.6944 154.732 14.9577 154.6 15.1684C154.416 15.4581 154.126 15.9453 153.731 16.6299C153.336 17.3146 152.928 18.0651 152.507 18.8815C152.112 19.6715 151.769 20.4089 151.48 21.0936C151.19 21.7782 151.045 22.2786 151.045 22.5946C151.045 22.9633 151.23 23.1476 151.598 23.1476C151.993 23.1476 152.441 22.9633 152.941 22.5946C153.442 22.2259 153.942 21.7782 154.442 21.2516C154.969 20.6985 155.443 20.1587 155.864 19.632C156.312 19.079 156.667 18.6445 156.931 18.3285C157.089 18.4865 157.076 18.7103 156.891 19C156.733 19.2633 156.588 19.474 156.457 19.632C155.93 20.3167 155.324 21.0277 154.64 21.7651C153.955 22.4761 153.205 23.0818 152.388 23.5821C151.598 24.0561 150.782 24.2931 149.939 24.2931ZM145.673 22.9106C145.989 22.9106 146.424 22.6868 146.977 22.2391C147.556 21.7651 148.175 21.1857 148.833 20.501C149.491 19.79 150.11 19.0527 150.69 18.289C151.269 17.499 151.743 16.7879 152.112 16.1559C152.507 15.4976 152.704 14.9972 152.704 14.6549C152.704 14.3652 152.612 14.1677 152.428 14.0624C152.27 13.957 152.059 13.9044 151.796 13.9044C151.374 13.9044 150.914 14.0624 150.413 14.3784C149.939 14.6681 149.557 14.9577 149.268 15.2474C148.952 15.5371 148.57 15.9979 148.122 16.6299C147.701 17.2356 147.279 17.9071 146.858 18.6445C146.437 19.3818 146.081 20.0929 145.792 20.7775C145.502 21.4622 145.357 22.0152 145.357 22.4366C145.357 22.7526 145.462 22.9106 145.673 22.9106Z" fill="#DB7A69"/>
<path d="M157.205 24.7672C157.1 24.7672 157.1 24.6486 157.205 24.4116C157.337 24.1746 157.455 23.9113 157.561 23.6216C157.692 23.3319 157.824 23.0159 157.956 22.6736C158.219 22.0416 158.509 21.3306 158.825 20.5405C159.141 19.7505 159.444 18.9868 159.733 18.2495C160.023 17.4858 160.273 16.8406 160.484 16.3139C160.721 15.7609 160.879 15.4054 160.958 15.2474C160.589 15.6424 160.141 16.1428 159.615 16.7484C159.114 17.3278 158.64 17.894 158.193 18.447C157.745 19 157.403 19.4345 157.166 19.7505C157.087 19.8559 157.021 19.9085 156.968 19.9085C156.916 19.9085 156.889 19.8427 156.889 19.711C156.889 19.5003 156.955 19.3028 157.087 19.1185C157.587 18.4865 158.14 17.7755 158.746 16.9854C159.378 16.1954 159.944 15.4712 160.444 14.8129C160.945 14.1282 161.261 13.6805 161.392 13.4699C161.682 13.4172 162.103 13.3382 162.656 13.2328C163.236 13.1275 163.631 12.9827 163.841 12.7983C163.92 12.7193 163.999 12.6798 164.078 12.6798C164.131 12.6798 164.157 12.7325 164.157 12.8378C164.184 12.9168 164.157 13.009 164.078 13.1143C163.92 13.2987 163.644 13.7332 163.249 14.4179C162.88 15.0762 162.472 15.8136 162.024 16.6299C161.603 17.4463 161.208 18.1836 160.839 18.842C161.155 18.4207 161.498 18.0125 161.866 17.6175C162.235 17.2225 162.591 16.8406 162.933 16.4719C163.249 16.1559 163.683 15.7609 164.236 15.2869C164.789 14.8129 165.369 14.3784 165.974 13.9834C166.58 13.5884 167.107 13.3645 167.554 13.3119C167.66 13.2855 167.752 13.2723 167.831 13.2723C167.936 13.2723 168.015 13.2723 168.068 13.2723C168.647 13.2723 168.937 13.483 168.937 13.9044C168.937 14.2204 168.766 14.6417 168.423 15.1684C168.239 15.4581 167.949 15.9453 167.554 16.6299C167.186 17.2883 166.804 18.0125 166.409 18.8025C166.04 19.5662 165.711 20.2904 165.421 20.9751C165.158 21.6334 165.026 22.1206 165.026 22.4366C165.026 22.8053 165.211 22.9896 165.579 22.9896C166.027 22.9896 166.514 22.7658 167.041 22.3181C167.594 21.8704 168.186 21.3042 168.818 20.6195C169.451 19.9085 170.083 19.158 170.715 18.368C170.767 18.4207 170.794 18.5128 170.794 18.6445C170.794 18.8288 170.728 19.0132 170.596 19.1975C170.491 19.3555 170.385 19.5003 170.28 19.632C170.017 19.9744 169.661 20.4089 169.214 20.9356C168.792 21.4359 168.358 21.9362 167.91 22.4366C167.462 22.9106 167.054 23.2924 166.685 23.5821C166.422 23.7665 166.08 23.964 165.658 24.1746C165.237 24.3853 164.816 24.4906 164.394 24.4906C163.92 24.4906 163.591 24.3721 163.407 24.1351C163.223 23.8718 163.13 23.5558 163.13 23.1871C163.13 22.7658 163.209 22.3181 163.367 21.8441C163.525 21.3701 163.697 20.9224 163.881 20.501C164.092 20.0534 164.25 19.7242 164.355 19.5135C164.829 18.5918 165.263 17.7228 165.658 16.9064C166.053 16.0901 166.33 15.5107 166.488 15.1684C166.567 15.0104 166.606 14.8787 166.606 14.7734C166.606 14.5891 166.462 14.5759 166.172 14.7339C165.882 14.8919 165.527 15.1289 165.105 15.4449C164.71 15.7609 164.342 16.0769 163.999 16.3929C163.657 16.6826 163.433 16.8801 163.328 16.9854C162.353 18.0125 161.498 19.158 160.76 20.422C160.049 21.6597 159.444 22.9369 158.943 24.2536C158.601 24.28 158.259 24.3721 157.916 24.5301C157.574 24.6881 157.337 24.7672 157.205 24.7672Z" fill="#DB7A69"/>
<path d="M176.169 24.2931C175.905 24.2931 175.682 24.2405 175.497 24.1351C175.313 24.0298 175.221 23.8323 175.221 23.5426C175.221 23.1739 175.313 22.7526 175.497 22.2786C175.682 21.8046 175.892 21.3437 176.129 20.8961C176.366 20.422 176.577 20.0402 176.761 19.7505C175.84 20.7249 174.878 21.6466 173.878 22.5156C173.377 22.9369 172.824 23.3319 172.219 23.7006C171.613 24.0693 170.968 24.2536 170.283 24.2536C170.02 24.2536 169.835 24.1746 169.73 24.0166C169.625 23.8323 169.572 23.6216 169.572 23.3846C169.572 23.2529 169.585 23.1608 169.612 23.1081C169.743 22.0811 170.072 21.0146 170.599 19.9085C171.126 18.8025 171.771 17.7623 172.535 16.7879C173.298 15.8136 174.075 15.0236 174.865 14.4179C175.471 13.9702 176.05 13.6937 176.603 13.5884C177.156 13.4567 177.762 13.3909 178.42 13.3909H179.724C180.145 12.6798 180.58 11.8898 181.027 11.0208C181.501 10.1254 181.962 9.24324 182.41 8.37422C182.884 7.5052 183.318 6.74151 183.713 6.08316C184.793 4.23978 185.978 2.76507 187.269 1.65904C188.585 0.553014 190.047 0 191.653 0C191.996 0 192.312 0.105336 192.601 0.316009C192.891 0.500348 193.023 0.790022 192.996 1.18503L192.917 2.60707C192.917 2.6334 192.891 2.6729 192.838 2.72557C192.786 2.75191 192.746 2.76507 192.72 2.76507C192.693 2.76507 192.654 2.73874 192.601 2.68607C192.522 2.21206 192.285 1.85655 191.89 1.61954C191.495 1.3562 191.008 1.22453 190.429 1.22453C190.244 1.22453 190.034 1.2377 189.797 1.26403C189.586 1.29037 189.375 1.34304 189.165 1.42204C188.427 1.68538 187.729 2.22523 187.071 3.04158C186.413 3.8316 185.702 4.88496 184.938 6.20166C184.675 6.70201 184.332 7.36036 183.911 8.17671C183.49 8.96674 183.042 9.82259 182.568 10.7443C182.12 11.666 181.686 12.5613 181.264 13.4304C180.869 14.2994 180.527 15.0367 180.237 15.6424C180.106 15.9584 179.882 16.4456 179.566 17.104C179.25 17.736 178.908 18.4338 178.539 19.1975C178.196 19.9349 177.894 20.6195 177.63 21.2516C177.393 21.8836 177.275 22.3313 177.275 22.5946C177.275 22.9633 177.433 23.1476 177.749 23.1476C178.065 23.1476 178.486 22.9633 179.013 22.5946C179.54 22.1996 180.079 21.7256 180.632 21.1726C181.212 20.5932 181.725 20.0402 182.173 19.5135C182.647 18.9868 182.976 18.5918 183.16 18.3285C183.239 18.4075 183.279 18.4997 183.279 18.605C183.279 18.7893 183.2 18.9737 183.042 19.158C182.91 19.3423 182.792 19.5003 182.686 19.632C182.212 20.264 181.62 20.9487 180.909 21.6861C180.224 22.3971 179.474 23.0159 178.657 23.5426C177.841 24.043 177.011 24.2931 176.169 24.2931ZM171.903 22.9106C172.219 22.9106 172.653 22.6868 173.206 22.2391C173.786 21.7651 174.404 21.1857 175.063 20.501C175.721 19.79 176.34 19.0527 176.919 18.289C177.499 17.499 177.973 16.7879 178.341 16.1559C178.736 15.4976 178.934 14.9972 178.934 14.6549C178.934 14.3652 178.842 14.1677 178.657 14.0624C178.499 13.957 178.289 13.9044 178.025 13.9044C177.604 13.9044 177.143 14.0624 176.643 14.3784C176.169 14.6681 175.787 14.9577 175.497 15.2474C175.181 15.5371 174.799 15.9979 174.352 16.6299C173.93 17.2356 173.509 17.9071 173.088 18.6445C172.666 19.3818 172.311 20.0929 172.021 20.7775C171.731 21.4622 171.587 22.0152 171.587 22.4366C171.587 22.7526 171.692 22.9106 171.903 22.9106Z" fill="#DB7A69"/>
<path d="M183.83 24.2536C183.408 24.2536 183.027 24.1746 182.684 24.0166C182.368 23.8323 182.21 23.4505 182.21 22.8711C182.21 21.9494 182.447 21.0277 182.921 20.106C183.395 19.158 183.882 18.3285 184.383 17.6175C184.831 17.0118 185.331 16.4456 185.884 15.9189C186.463 15.3659 187.082 14.8919 187.74 14.4969C188.162 14.2335 188.728 13.957 189.439 13.6674C190.176 13.3514 190.795 13.1933 191.295 13.1933C191.717 13.1933 192.086 13.3119 192.402 13.5489C192.718 13.7595 192.876 14.1545 192.876 14.7339C192.876 15.6292 192.639 16.5509 192.165 17.499C191.717 18.4207 191.243 19.237 190.742 19.948C190.505 20.264 190.268 20.5669 190.031 20.8565C189.794 21.1199 189.531 21.3964 189.241 21.6861C190.216 21.6861 191.111 21.4096 191.928 20.8565C192.744 20.2772 193.455 19.5793 194.061 18.763L194.14 18.684C194.219 18.684 194.258 18.763 194.258 18.921C194.258 19.1053 194.205 19.2765 194.1 19.4345C193.573 20.1719 192.915 20.8302 192.125 21.4096C191.335 21.9626 190.44 22.2391 189.439 22.2391C189.334 22.2391 189.228 22.2391 189.123 22.2391C189.018 22.2391 188.912 22.2259 188.807 22.1996C187.332 23.569 185.673 24.2536 183.83 24.2536ZM184.857 23.5821C185.226 23.5821 185.621 23.4504 186.042 23.1871C186.49 22.9238 186.832 22.6736 187.069 22.4366C187.517 21.9889 187.925 21.5149 188.293 21.0146C188.662 20.4879 189.004 19.9612 189.32 19.4345C189.689 18.8025 190.058 18.052 190.426 17.183C190.795 16.3139 190.979 15.4976 190.979 14.7339C190.979 14.1282 190.769 13.8254 190.347 13.8254C190.005 13.8254 189.584 13.9702 189.083 14.2599C188.609 14.5495 188.254 14.8129 188.017 15.0499C187.122 15.9716 186.371 16.9723 185.765 18.052C185.423 18.6577 185.054 19.3687 184.659 20.185C184.264 21.0014 184.067 21.7519 184.067 22.4366C184.067 22.5419 184.067 22.6473 184.067 22.7526C184.093 22.8316 184.119 22.9238 184.146 23.0291C184.251 23.3978 184.488 23.5821 184.857 23.5821Z" fill="#DB7A69"/>
<path d="M194.679 24.7672C194.573 24.7672 194.573 24.6486 194.679 24.4116C194.81 24.1746 194.929 23.9113 195.034 23.6216C195.166 23.3319 195.298 23.0159 195.429 22.6736C195.693 22.0416 195.982 21.3306 196.298 20.5405C196.614 19.7505 196.917 18.9868 197.207 18.2495C197.496 17.4858 197.747 16.8406 197.957 16.3139C198.194 15.7609 198.352 15.4054 198.431 15.2474C198.063 15.6424 197.615 16.1428 197.088 16.7484C196.588 17.3278 196.114 17.894 195.666 18.447C195.219 19 194.876 19.4345 194.639 19.7505C194.56 19.8559 194.494 19.9085 194.442 19.9085C194.389 19.9085 194.363 19.8427 194.363 19.711C194.363 19.5003 194.429 19.3028 194.56 19.1185C195.061 18.4865 195.614 17.7755 196.219 16.9854C196.851 16.1954 197.417 15.4712 197.918 14.8129C198.418 14.1282 198.734 13.6805 198.866 13.4699C199.155 13.4172 199.577 13.3382 200.13 13.2328C200.709 13.1275 201.104 12.9827 201.315 12.7983C201.394 12.7193 201.473 12.6798 201.552 12.6798C201.605 12.6798 201.631 12.7325 201.631 12.8378C201.657 12.9168 201.631 13.009 201.552 13.1143C201.394 13.2987 201.117 13.7332 200.722 14.4179C200.354 15.0762 199.946 15.8136 199.498 16.6299C199.076 17.4463 198.681 18.1836 198.313 18.842C198.629 18.4207 198.971 18.0125 199.34 17.6175C199.709 17.2225 200.064 16.8406 200.406 16.4719C200.722 16.1559 201.157 15.7609 201.71 15.2869C202.263 14.8129 202.842 14.3784 203.448 13.9834C204.054 13.5884 204.58 13.3645 205.028 13.3119C205.133 13.2855 205.225 13.2723 205.304 13.2723C205.41 13.2723 205.489 13.2723 205.541 13.2723C206.121 13.2723 206.411 13.483 206.411 13.9044C206.411 14.2204 206.239 14.6417 205.897 15.1684C205.713 15.4581 205.423 15.9453 205.028 16.6299C204.659 17.2883 204.277 18.0125 203.882 18.8025C203.514 19.5662 203.185 20.2904 202.895 20.9751C202.632 21.6334 202.5 22.1206 202.5 22.4366C202.5 22.8053 202.684 22.9896 203.053 22.9896C203.501 22.9896 203.988 22.7658 204.514 22.3181C205.067 21.8704 205.66 21.3042 206.292 20.6195C206.924 19.9085 207.556 19.158 208.188 18.368C208.241 18.4207 208.267 18.5128 208.267 18.6445C208.267 18.8288 208.201 19.0132 208.07 19.1975C207.964 19.3555 207.859 19.5003 207.754 19.632C207.49 19.9744 207.135 20.4089 206.687 20.9356C206.266 21.4359 205.831 21.9362 205.383 22.4366C204.936 22.9106 204.528 23.2924 204.159 23.5821C203.896 23.7665 203.553 23.964 203.132 24.1746C202.711 24.3853 202.289 24.4906 201.868 24.4906C201.394 24.4906 201.065 24.3721 200.88 24.1351C200.696 23.8718 200.604 23.5558 200.604 23.1871C200.604 22.7658 200.683 22.3181 200.841 21.8441C200.999 21.3701 201.17 20.9224 201.354 20.501C201.565 20.0534 201.723 19.7242 201.828 19.5135C202.302 18.5918 202.737 17.7228 203.132 16.9064C203.527 16.0901 203.803 15.5107 203.961 15.1684C204.04 15.0104 204.08 14.8787 204.08 14.7734C204.08 14.5891 203.935 14.5759 203.645 14.7339C203.356 14.8919 203 15.1289 202.579 15.4449C202.184 15.7609 201.815 16.0769 201.473 16.3929C201.131 16.6826 200.907 16.8801 200.801 16.9854C199.827 18.0125 198.971 19.158 198.234 20.422C197.523 21.6597 196.917 22.9369 196.417 24.2536C196.074 24.28 195.732 24.3721 195.39 24.5301C195.047 24.6881 194.81 24.7672 194.679 24.7672Z" fill="#DB7A69"/>
</svg>
