<svg width="20" height="21" viewBox="0 0 20 21" fill="none" xmlns="http://www.w3.org/2000/svg">
<g clip-path="url(#clip0_2257_2717)">
<path d="M14.4805 0.5H5.51913C2.47588 0.5 0 2.976 0 6.01924V14.9806C0 18.024 2.47588 20.4999 5.51913 20.4999H14.4805C17.524 20.4999 19.9999 18.0239 19.9999 14.9806V6.01924C20 2.976 17.524 0.5 14.4805 0.5ZM18.2255 14.9806C18.2255 17.0455 16.5455 18.7254 14.4806 18.7254H5.51913C3.45433 18.7255 1.77449 17.0455 1.77449 14.9806V6.01924C1.77449 3.95445 3.45433 2.27449 5.51913 2.27449H14.4805C16.5454 2.27449 18.2254 3.95445 18.2254 6.01924V14.9806H18.2255Z" fill="#5E302C"/>
<path d="M10.0001 5.34668C7.15848 5.34668 4.84668 7.65848 4.84668 10.5001C4.84668 13.3417 7.15848 15.6534 10.0001 15.6534C12.8418 15.6534 15.1536 13.3417 15.1536 10.5001C15.1536 7.65848 12.8418 5.34668 10.0001 5.34668ZM10.0001 13.8788C8.13705 13.8788 6.62116 12.3631 6.62116 10.5C6.62116 8.63681 8.13693 7.12105 10.0001 7.12105C11.8633 7.12105 13.3791 8.63681 13.3791 10.5C13.3791 12.3631 11.8632 13.8788 10.0001 13.8788Z" fill="#5E302C"/>
<path d="M15.3697 3.8418C15.0278 3.8418 14.6919 3.98021 14.4505 4.22272C14.2078 4.46405 14.0684 4.80002 14.0684 5.14309C14.0684 5.48509 14.208 5.82094 14.4505 6.06345C14.6918 6.30478 15.0278 6.44438 15.3697 6.44438C15.7127 6.44438 16.0475 6.30478 16.29 6.06345C16.5325 5.82094 16.6709 5.48497 16.6709 5.14309C16.6709 4.80002 16.5325 4.46405 16.29 4.22272C16.0487 3.98021 15.7127 3.8418 15.3697 3.8418Z" fill="#5E302C"/>
</g>
<defs>
<clipPath id="clip0_2257_2717">
<rect width="20" height="20" fill="white" transform="translate(0 0.5)"/>
</clipPath>
</defs>
</svg>
