<svg width="18" height="18" viewBox="0 0 18 18" fill="none" xmlns="http://www.w3.org/2000/svg">
<path d="M12.45 10.5002C12.3 10.4252 11.325 9.97519 11.175 9.90019C11.025 9.82519 10.875 9.8252 10.725 9.9752C10.575 10.1252 10.275 10.5752 10.125 10.7252C10.05 10.8752 9.9 10.8752 9.75 10.8002C9.225 10.5752 8.7 10.2752 8.25 9.90019C7.875 9.52519 7.5 9.0752 7.2 8.6252C7.125 8.4752 7.2 8.3252 7.275 8.2502C7.35 8.1752 7.425 8.0252 7.575 7.9502C7.65 7.8752 7.725 7.72519 7.725 7.65019C7.8 7.57519 7.8 7.4252 7.725 7.3502C7.65 7.2752 7.275 6.3752 7.125 6.0002C7.05 5.4752 6.9 5.4752 6.75 5.4752C6.675 5.4752 6.525 5.4752 6.375 5.4752C6.225 5.4752 6 5.6252 5.925 5.7002C5.475 6.1502 5.25 6.6752 5.25 7.2752C5.325 7.9502 5.55 8.6252 6 9.2252C6.825 10.4252 7.875 11.4002 9.15 12.0002C9.525 12.1502 9.825 12.3002 10.2 12.3752C10.575 12.5252 10.95 12.5252 11.4 12.4502C11.925 12.3752 12.375 12.0002 12.675 11.5502C12.825 11.2502 12.825 10.9502 12.75 10.6502C12.75 10.6502 12.6 10.5752 12.45 10.5002ZM14.325 3.6752C11.4 0.750195 6.675 0.750195 3.75 3.6752C1.35 6.0752 0.9 9.75019 2.55 12.6752L1.5 16.5002L5.475 15.4502C6.6 16.0502 7.8 16.3502 9 16.3502C13.125 16.3502 16.425 13.0502 16.425 8.92519C16.5 6.97519 15.675 5.1002 14.325 3.6752ZM12.3 14.1752C11.325 14.7752 10.2 15.1502 9 15.1502C7.875 15.1502 6.825 14.8502 5.85 14.3252L5.625 14.1752L3.3 14.7752L3.9 12.5252L3.75 12.3002C1.95 9.30019 2.85 5.5502 5.775 3.6752C8.7 1.8002 12.45 2.7752 14.25 5.6252C16.05 8.5502 15.225 12.3752 12.3 14.1752Z" fill="#ED836E"/>
</svg>
